%TF.GenerationSoftware,KiCad,Pcbnew,9.0.2*%
%TF.CreationDate,2025-07-05T18:08:38-04:00*%
%TF.ProjectId,SteamDeck_Action_Buttons_Replacement_Pad,53746561-6d44-4656-936b-5f416374696f,rev?*%
%TF.SameCoordinates,Original*%
%TF.FileFunction,Legend,Top*%
%TF.FilePolarity,Positive*%
%FSLAX46Y46*%
G04 Gerber Fmt 4.6, Leading zero omitted, Abs format (unit mm)*
G04 Created by KiCad (PCBNEW 9.0.2) date 2025-07-05 18:08:38*
%MOMM*%
%LPD*%
G01*
G04 APERTURE LIST*
%ADD10C,0.100000*%
G04 APERTURE END LIST*
D10*
G36*
X140606167Y-84180000D02*
G01*
X140993475Y-83656587D01*
X140651901Y-83175673D01*
X140809743Y-83175673D01*
X140991399Y-83432555D01*
X141072060Y-83555471D01*
X141107768Y-83500815D01*
X141151256Y-83441409D01*
X141352817Y-83175673D01*
X141496920Y-83175673D01*
X141145150Y-83649077D01*
X141524275Y-84180000D01*
X141360327Y-84180000D01*
X141108269Y-83822733D01*
X141064549Y-83755811D01*
X141016678Y-83830915D01*
X140765291Y-84180000D01*
X140606167Y-84180000D01*
G37*
G36*
X149980055Y-75630000D02*
G01*
X149980055Y-75204040D01*
X149594091Y-74625673D01*
X149755291Y-74625673D01*
X149952761Y-74928595D01*
X150054549Y-75098527D01*
X150163848Y-74921024D01*
X150357838Y-74625673D01*
X150512199Y-74625673D01*
X150112557Y-75204040D01*
X150112557Y-75630000D01*
X149980055Y-75630000D01*
G37*
G36*
X159174598Y-84019586D02*
G01*
X159235009Y-84030201D01*
X159282264Y-84046142D01*
X159325405Y-84070234D01*
X159361356Y-84101271D01*
X159390891Y-84139809D01*
X159412966Y-84183250D01*
X159425873Y-84227103D01*
X159430153Y-84272067D01*
X159426303Y-84313968D01*
X159414791Y-84354117D01*
X159395287Y-84393150D01*
X159368903Y-84427721D01*
X159334276Y-84458207D01*
X159290141Y-84484741D01*
X159347592Y-84507568D01*
X159393564Y-84537988D01*
X159429848Y-84576027D01*
X159456768Y-84621131D01*
X159473075Y-84671449D01*
X159478696Y-84728374D01*
X159471183Y-84796897D01*
X159448960Y-84859776D01*
X159414748Y-84914781D01*
X159375504Y-84953443D01*
X159327743Y-84981648D01*
X159265839Y-85003208D01*
X159196154Y-85015414D01*
X159104333Y-85020000D01*
X158722459Y-85020000D01*
X158722459Y-84903740D01*
X158855022Y-84903740D01*
X159104333Y-84903740D01*
X159194520Y-84898855D01*
X159237702Y-84887332D01*
X159270968Y-84871133D01*
X159298536Y-84847800D01*
X159321526Y-84814591D01*
X159336230Y-84775363D01*
X159341371Y-84728862D01*
X159338039Y-84691818D01*
X159328417Y-84659146D01*
X159312672Y-84630005D01*
X159291193Y-84604895D01*
X159264901Y-84585336D01*
X159233049Y-84571020D01*
X159176502Y-84558916D01*
X159086564Y-84553984D01*
X158855022Y-84553984D01*
X158855022Y-84903740D01*
X158722459Y-84903740D01*
X158722459Y-84437725D01*
X158855022Y-84437725D01*
X159071543Y-84437725D01*
X159153429Y-84434174D01*
X159197939Y-84426001D01*
X159243192Y-84405179D01*
X159274082Y-84375626D01*
X159292988Y-84337032D01*
X159299727Y-84287271D01*
X159293577Y-84239261D01*
X159275792Y-84198550D01*
X159257571Y-84175689D01*
X159235027Y-84158338D01*
X159207465Y-84146099D01*
X159155138Y-84136271D01*
X159055118Y-84131933D01*
X158855022Y-84131933D01*
X158855022Y-84437725D01*
X158722459Y-84437725D01*
X158722459Y-84015673D01*
X159098166Y-84015673D01*
X159174598Y-84019586D01*
G37*
G36*
X140533879Y-71369313D02*
G01*
X140600092Y-71378858D01*
X140647580Y-71392540D01*
X140690626Y-71414831D01*
X140727508Y-71446113D01*
X140758893Y-71487428D01*
X140782019Y-71534208D01*
X140795891Y-71583987D01*
X140800598Y-71637637D01*
X140796114Y-71689551D01*
X140783100Y-71736022D01*
X140761742Y-71778081D01*
X140731599Y-71816484D01*
X140695255Y-71847575D01*
X140648989Y-71873666D01*
X140590867Y-71894408D01*
X140518497Y-71908930D01*
X140567156Y-71935864D01*
X140598365Y-71959366D01*
X140653535Y-72018354D01*
X140708396Y-72094188D01*
X140882541Y-72370000D01*
X140715907Y-72370000D01*
X140583344Y-72158974D01*
X140487723Y-72019267D01*
X140449702Y-71975652D01*
X140420434Y-71951428D01*
X140390028Y-71934814D01*
X140359984Y-71924439D01*
X140286222Y-71919616D01*
X140132533Y-71919616D01*
X140132533Y-72370000D01*
X139999970Y-72370000D01*
X139999970Y-71807264D01*
X140132533Y-71807264D01*
X140417381Y-71807264D01*
X140503099Y-71801956D01*
X140559469Y-71788640D01*
X140591516Y-71773311D01*
X140617169Y-71753449D01*
X140637322Y-71728862D01*
X140657315Y-71685908D01*
X140663944Y-71639591D01*
X140658081Y-71594856D01*
X140641065Y-71556712D01*
X140612348Y-71523515D01*
X140575136Y-71499901D01*
X140522541Y-71484038D01*
X140449499Y-71478025D01*
X140132533Y-71478025D01*
X140132533Y-71807264D01*
X139999970Y-71807264D01*
X139999970Y-71365673D01*
X140444003Y-71365673D01*
X140533879Y-71369313D01*
G37*
G36*
X141361298Y-71634001D02*
G01*
X141423547Y-71652732D01*
X141478701Y-71683339D01*
X141527953Y-71726542D01*
X141566714Y-71778336D01*
X141595413Y-71840534D01*
X141613685Y-71915218D01*
X141620216Y-72005040D01*
X141619483Y-72037829D01*
X141078485Y-72037829D01*
X141085978Y-72097332D01*
X141100176Y-72146410D01*
X141120297Y-72186808D01*
X141146079Y-72219912D01*
X141189956Y-72254985D01*
X141239863Y-72275862D01*
X141297754Y-72283049D01*
X141341698Y-72278938D01*
X141379804Y-72267131D01*
X141413220Y-72247878D01*
X141441449Y-72221443D01*
X141466801Y-72184761D01*
X141489057Y-72135526D01*
X141616125Y-72151219D01*
X141589581Y-72221537D01*
X141552518Y-72278483D01*
X141504750Y-72324143D01*
X141462885Y-72350245D01*
X141415049Y-72369400D01*
X141360205Y-72381412D01*
X141297083Y-72385631D01*
X141218616Y-72378980D01*
X141151709Y-72360078D01*
X141094238Y-72329723D01*
X141044658Y-72287629D01*
X141005377Y-72236215D01*
X140976392Y-72174701D01*
X140957985Y-72101071D01*
X140951418Y-72012733D01*
X140957061Y-71935247D01*
X141085324Y-71935247D01*
X141490401Y-71935247D01*
X141480628Y-71876274D01*
X141464759Y-71832291D01*
X141443934Y-71800059D01*
X141412136Y-71769252D01*
X141376720Y-71747689D01*
X141336925Y-71734605D01*
X141291587Y-71730083D01*
X141237390Y-71736473D01*
X141190502Y-71755003D01*
X141149193Y-71785954D01*
X141117031Y-71826375D01*
X141095658Y-71875415D01*
X141085324Y-71935247D01*
X140957061Y-71935247D01*
X140958087Y-71921156D01*
X140976752Y-71844980D01*
X141006076Y-71781506D01*
X141045696Y-71728618D01*
X141096035Y-71684589D01*
X141152646Y-71653332D01*
X141216785Y-71634164D01*
X141290244Y-71627501D01*
X141361298Y-71634001D01*
G37*
G36*
X141971620Y-72370000D02*
G01*
X141695626Y-71643133D01*
X141825441Y-71643133D01*
X141981146Y-72078618D01*
X142027613Y-72225163D01*
X142073408Y-72086861D01*
X142234609Y-71643133D01*
X142361004Y-71643133D01*
X142086353Y-72370000D01*
X141971620Y-72370000D01*
G37*
G36*
X143203749Y-71365582D02*
G01*
X143250542Y-71376549D01*
X143292180Y-71394249D01*
X143330122Y-71418907D01*
X143363492Y-71449946D01*
X143392625Y-71487978D01*
X143427103Y-71553757D01*
X143454785Y-71637088D01*
X143470927Y-71732621D01*
X143477316Y-71874064D01*
X143472643Y-71992037D01*
X143459984Y-72085629D01*
X143441107Y-72158913D01*
X143411783Y-72227977D01*
X143375639Y-72283123D01*
X143332847Y-72326463D01*
X143281932Y-72358709D01*
X143222028Y-72378623D01*
X143150825Y-72385631D01*
X143080359Y-72378737D01*
X143020228Y-72359036D01*
X142968334Y-72326979D01*
X142923312Y-72281645D01*
X142891250Y-72232228D01*
X142864302Y-72169623D01*
X142843245Y-72091183D01*
X142829341Y-71993819D01*
X142824272Y-71874064D01*
X142824287Y-71873698D01*
X142950668Y-71873698D01*
X142955735Y-72005209D01*
X142968768Y-72097919D01*
X142986986Y-72160804D01*
X143008370Y-72201533D01*
X143040450Y-72238640D01*
X143074414Y-72263562D01*
X143110844Y-72278137D01*
X143150825Y-72283049D01*
X143190752Y-72278122D01*
X143227153Y-72263495D01*
X143261115Y-72238466D01*
X143293218Y-72201167D01*
X143314653Y-72160264D01*
X143332888Y-72097317D01*
X143345920Y-72004750D01*
X143350982Y-71873698D01*
X143345900Y-71741772D01*
X143332839Y-71648942D01*
X143314602Y-71586121D01*
X143293218Y-71545558D01*
X143261168Y-71508702D01*
X143227003Y-71483860D01*
X143190122Y-71469277D01*
X143149420Y-71464347D01*
X143108910Y-71468894D01*
X143073576Y-71482087D01*
X143042223Y-71504057D01*
X143014171Y-71535971D01*
X142990115Y-71581652D01*
X142970097Y-71648599D01*
X142956051Y-71743396D01*
X142950668Y-71873698D01*
X142824287Y-71873698D01*
X142828997Y-71755092D01*
X142841774Y-71661082D01*
X142860786Y-71587812D01*
X142890340Y-71518753D01*
X142926608Y-71463739D01*
X142969413Y-71420628D01*
X143020333Y-71388528D01*
X143080051Y-71368726D01*
X143150825Y-71361765D01*
X143203749Y-71365582D01*
G37*
G36*
X143670940Y-72370000D02*
G01*
X143670940Y-72229316D01*
X143810952Y-72229316D01*
X143810952Y-72370000D01*
X143670940Y-72370000D01*
G37*
G36*
X144636981Y-72253740D02*
G01*
X144636981Y-72370000D01*
X143975083Y-72370000D01*
X143977978Y-72326464D01*
X143989433Y-72284759D01*
X144021408Y-72219260D01*
X144070338Y-72151830D01*
X144133708Y-72085701D01*
X144231233Y-72000460D01*
X144339287Y-71906983D01*
X144409683Y-71837639D01*
X144451845Y-71787358D01*
X144485263Y-71732811D01*
X144503525Y-71683742D01*
X144509242Y-71638675D01*
X144503344Y-71591954D01*
X144486110Y-71551183D01*
X144456974Y-71514844D01*
X144419450Y-71487230D01*
X144374720Y-71470306D01*
X144320748Y-71464347D01*
X144263745Y-71470719D01*
X144217134Y-71488727D01*
X144178599Y-71518019D01*
X144149758Y-71556835D01*
X144131533Y-71605430D01*
X144124682Y-71666580D01*
X143998286Y-71653513D01*
X144010136Y-71583076D01*
X144030738Y-71524685D01*
X144059352Y-71476312D01*
X144095983Y-71436442D01*
X144140131Y-71404812D01*
X144191750Y-71381586D01*
X144252254Y-71366947D01*
X144323435Y-71361765D01*
X144395040Y-71367312D01*
X144455743Y-71382994D01*
X144507450Y-71407946D01*
X144551618Y-71442121D01*
X144588569Y-71484946D01*
X144614515Y-71531753D01*
X144630234Y-71583413D01*
X144635638Y-71641179D01*
X144629557Y-71700719D01*
X144611031Y-71759942D01*
X144579949Y-71817384D01*
X144529392Y-71882857D01*
X144461524Y-71951822D01*
X144339860Y-72059933D01*
X144239583Y-72146807D01*
X144197711Y-72186756D01*
X144168567Y-72220777D01*
X144145870Y-72253740D01*
X144636981Y-72253740D01*
G37*
G36*
X139993864Y-74050000D02*
G01*
X139993864Y-73045673D01*
X140193288Y-73045673D01*
X140430326Y-73757091D01*
X140478136Y-73905835D01*
X140531442Y-73744757D01*
X140771228Y-73045673D01*
X140949525Y-73045673D01*
X140949525Y-74050000D01*
X140821786Y-74050000D01*
X140821786Y-73208949D01*
X140530771Y-74050000D01*
X140411214Y-74050000D01*
X140121603Y-73194600D01*
X140121603Y-74050000D01*
X139993864Y-74050000D01*
G37*
G36*
X141182594Y-74050000D02*
G01*
X141182594Y-73909316D01*
X141322606Y-73909316D01*
X141322606Y-74050000D01*
X141182594Y-74050000D01*
G37*
G36*
X141556407Y-74050000D02*
G01*
X141556407Y-73045673D01*
X141688909Y-73045673D01*
X141688909Y-73459909D01*
X142209452Y-73459909D01*
X142209452Y-73045673D01*
X142341953Y-73045673D01*
X142341953Y-74050000D01*
X142209452Y-74050000D01*
X142209452Y-73576168D01*
X141688909Y-73576168D01*
X141688909Y-74050000D01*
X141556407Y-74050000D01*
G37*
G36*
X142914462Y-73313973D02*
G01*
X142978579Y-73332590D01*
X143035258Y-73362909D01*
X143085734Y-73405504D01*
X143125970Y-73457062D01*
X143155461Y-73518052D01*
X143174073Y-73590327D01*
X143180683Y-73676308D01*
X143175250Y-73769290D01*
X143160602Y-73841368D01*
X143138674Y-73896615D01*
X143106379Y-73946165D01*
X143065880Y-73987467D01*
X143016369Y-74021240D01*
X142961438Y-74045834D01*
X142903331Y-74060619D01*
X142841186Y-74065631D01*
X142766398Y-74059120D01*
X142701572Y-74040471D01*
X142644859Y-74010253D01*
X142594928Y-73967995D01*
X142555620Y-73916741D01*
X142526411Y-73854385D01*
X142507726Y-73778636D01*
X142501017Y-73686566D01*
X142501040Y-73686200D01*
X142627351Y-73686200D01*
X142631866Y-73756651D01*
X142644256Y-73813166D01*
X142663234Y-73858276D01*
X142688168Y-73894050D01*
X142720912Y-73924519D01*
X142756806Y-73945788D01*
X142796546Y-73958634D01*
X142841186Y-73963049D01*
X142885448Y-73958627D01*
X142924959Y-73945743D01*
X142960759Y-73924368D01*
X142993532Y-73893684D01*
X143018362Y-73857796D01*
X143037348Y-73812136D01*
X143049798Y-73754494D01*
X143054349Y-73682170D01*
X143049870Y-73614407D01*
X143037507Y-73559430D01*
X143018429Y-73514959D01*
X142993166Y-73479143D01*
X142960258Y-73448562D01*
X142924462Y-73427281D01*
X142885108Y-73414473D01*
X142841186Y-73410083D01*
X142796529Y-73414483D01*
X142756781Y-73427279D01*
X142720893Y-73448457D01*
X142688168Y-73478777D01*
X142663246Y-73514377D01*
X142644268Y-73559346D01*
X142631871Y-73615768D01*
X142627351Y-73686200D01*
X142501040Y-73686200D01*
X142506245Y-73604388D01*
X142520894Y-73535370D01*
X142543826Y-73477404D01*
X142574512Y-73428746D01*
X142613063Y-73388101D01*
X142661961Y-73353095D01*
X142715617Y-73328096D01*
X142774956Y-73312786D01*
X142841186Y-73307501D01*
X142914462Y-73313973D01*
G37*
G36*
X143799900Y-74050000D02*
G01*
X143799900Y-73943082D01*
X143762652Y-73988146D01*
X143721663Y-74022020D01*
X143676479Y-74045982D01*
X143626231Y-74060588D01*
X143569701Y-74065631D01*
X143507211Y-74059399D01*
X143449778Y-74041024D01*
X143399786Y-74012138D01*
X143367102Y-73979169D01*
X143344602Y-73938720D01*
X143329244Y-73887883D01*
X143323979Y-73846321D01*
X143321734Y-73773028D01*
X143321734Y-73323133D01*
X143444649Y-73323133D01*
X143444649Y-73726133D01*
X143447029Y-73814801D01*
X143452159Y-73856132D01*
X143463026Y-73886620D01*
X143479348Y-73911760D01*
X143501374Y-73932397D01*
X143527662Y-73947488D01*
X143558274Y-73956835D01*
X143594248Y-73960118D01*
X143647813Y-73953045D01*
X143698112Y-73931725D01*
X143727648Y-73910188D01*
X143750285Y-73884574D01*
X143766744Y-73854422D01*
X143781073Y-73799734D01*
X143786894Y-73712456D01*
X143786894Y-73323133D01*
X143909870Y-73323133D01*
X143909870Y-74050000D01*
X143799900Y-74050000D01*
G37*
G36*
X144100746Y-74050000D02*
G01*
X144100746Y-73323133D01*
X144211388Y-73323133D01*
X144211388Y-73432859D01*
X144255763Y-73364748D01*
X144289607Y-73331926D01*
X144327331Y-73313592D01*
X144368497Y-73307501D01*
X144408971Y-73311625D01*
X144450849Y-73324400D01*
X144494893Y-73346885D01*
X144452578Y-73460214D01*
X144406616Y-73439951D01*
X144362391Y-73433531D01*
X144324134Y-73439607D01*
X144289973Y-73457833D01*
X144262804Y-73486356D01*
X144244178Y-73525305D01*
X144228997Y-73593031D01*
X144223722Y-73669164D01*
X144223722Y-74050000D01*
X144100746Y-74050000D01*
G37*
G36*
X144963048Y-73313582D02*
G01*
X145025816Y-73329422D01*
X145078226Y-73355435D01*
X145111179Y-73384438D01*
X145133980Y-73420973D01*
X145149464Y-73468152D01*
X145153715Y-73505908D01*
X145155631Y-73581664D01*
X145155631Y-73745734D01*
X145158242Y-73902003D01*
X145163447Y-73962866D01*
X145175091Y-74007183D01*
X145194527Y-74050000D01*
X145066116Y-74050000D01*
X145050703Y-74009201D01*
X145041509Y-73959691D01*
X144972097Y-74010721D01*
X144910045Y-74041695D01*
X144845112Y-74059546D01*
X144774429Y-74065631D01*
X144714351Y-74061439D01*
X144664871Y-74049771D01*
X144624128Y-74031575D01*
X144590636Y-74007196D01*
X144562513Y-73975884D01*
X144542700Y-73941092D01*
X144530634Y-73902096D01*
X144526461Y-73857841D01*
X144526834Y-73854727D01*
X144657620Y-73854727D01*
X144661798Y-73885957D01*
X144674017Y-73913009D01*
X144694806Y-73936976D01*
X144721559Y-73954381D01*
X144757031Y-73965706D01*
X144803799Y-73969888D01*
X144850353Y-73966274D01*
X144892216Y-73955795D01*
X144930195Y-73938686D01*
X144964197Y-73915004D01*
X144991043Y-73886696D01*
X145011467Y-73853323D01*
X145025529Y-73806151D01*
X145031250Y-73729858D01*
X145031250Y-73684612D01*
X144955542Y-73708182D01*
X144830422Y-73731385D01*
X144760408Y-73744323D01*
X144723199Y-73756114D01*
X144695077Y-73773185D01*
X144674656Y-73796170D01*
X144661905Y-73823910D01*
X144657620Y-73854727D01*
X144526834Y-73854727D01*
X144532608Y-73806494D01*
X144550703Y-73760450D01*
X144578928Y-73720475D01*
X144614206Y-73689741D01*
X144655605Y-73666484D01*
X144702683Y-73649380D01*
X144811981Y-73630940D01*
X144950767Y-73609733D01*
X145031250Y-73588869D01*
X145031983Y-73556934D01*
X145027355Y-73508298D01*
X145015243Y-73474500D01*
X144997117Y-73451543D01*
X144963240Y-73429703D01*
X144917738Y-73415396D01*
X144857105Y-73410083D01*
X144799745Y-73414195D01*
X144758319Y-73424996D01*
X144729000Y-73440858D01*
X144705542Y-73464360D01*
X144684982Y-73499511D01*
X144667878Y-73549790D01*
X144547650Y-73533426D01*
X144561670Y-73482531D01*
X144579785Y-73440980D01*
X144601566Y-73407336D01*
X144629273Y-73378702D01*
X144665002Y-73354041D01*
X144710193Y-73333452D01*
X144784673Y-73314345D01*
X144874874Y-73307501D01*
X144963048Y-73313582D01*
G37*
G36*
X145345774Y-74050000D02*
G01*
X145345774Y-73323133D01*
X145456477Y-73323133D01*
X145456477Y-73425959D01*
X145491593Y-73383008D01*
X145531446Y-73350367D01*
X145576603Y-73326982D01*
X145628099Y-73312541D01*
X145687348Y-73307501D01*
X145750949Y-73313543D01*
X145807882Y-73331132D01*
X145857227Y-73359335D01*
X145890191Y-73392986D01*
X145913124Y-73434110D01*
X145928476Y-73483906D01*
X145933209Y-73524494D01*
X145935315Y-73603524D01*
X145935315Y-74050000D01*
X145812339Y-74050000D01*
X145812339Y-73607554D01*
X145808127Y-73537076D01*
X145797990Y-73494897D01*
X145778346Y-73461567D01*
X145747126Y-73435301D01*
X145708143Y-73418779D01*
X145661397Y-73413014D01*
X145610889Y-73418691D01*
X145566145Y-73435267D01*
X145525781Y-73463023D01*
X145503267Y-73489652D01*
X145485485Y-73527702D01*
X145473350Y-73580619D01*
X145468750Y-73652739D01*
X145468750Y-74050000D01*
X145345774Y-74050000D01*
G37*
G36*
X146124176Y-73186357D02*
G01*
X146124176Y-73045673D01*
X146247091Y-73045673D01*
X146247091Y-73186357D01*
X146124176Y-73186357D01*
G37*
G36*
X146124176Y-74050000D02*
G01*
X146124176Y-73323133D01*
X146247091Y-73323133D01*
X146247091Y-74050000D01*
X146124176Y-74050000D01*
G37*
G36*
X150605205Y-93240000D02*
G01*
X150454202Y-93240000D01*
X150337393Y-92935184D01*
X149918639Y-92935184D01*
X149808668Y-93240000D01*
X149667923Y-93240000D01*
X149826561Y-92825764D01*
X149956924Y-92825764D01*
X150296421Y-92825764D01*
X150191885Y-92548487D01*
X150148206Y-92427490D01*
X150120872Y-92340881D01*
X150097918Y-92436495D01*
X150066894Y-92532123D01*
X149956924Y-92825764D01*
X149826561Y-92825764D01*
X150052545Y-92235673D01*
X150195305Y-92235673D01*
X150605205Y-93240000D01*
G37*
G36*
X133803864Y-73760000D02*
G01*
X133803864Y-72755673D01*
X134003288Y-72755673D01*
X134240326Y-73467091D01*
X134288136Y-73615835D01*
X134341442Y-73454757D01*
X134581228Y-72755673D01*
X134759525Y-72755673D01*
X134759525Y-73760000D01*
X134631786Y-73760000D01*
X134631786Y-72918949D01*
X134340771Y-73760000D01*
X134221214Y-73760000D01*
X133931603Y-72904600D01*
X133931603Y-73760000D01*
X133803864Y-73760000D01*
G37*
G36*
X135326636Y-73024001D02*
G01*
X135388886Y-73042732D01*
X135444040Y-73073339D01*
X135493292Y-73116542D01*
X135532053Y-73168336D01*
X135560751Y-73230534D01*
X135579024Y-73305218D01*
X135585554Y-73395040D01*
X135584822Y-73427829D01*
X135043824Y-73427829D01*
X135051317Y-73487332D01*
X135065514Y-73536410D01*
X135085635Y-73576808D01*
X135111418Y-73609912D01*
X135155294Y-73644985D01*
X135205201Y-73665862D01*
X135263093Y-73673049D01*
X135307036Y-73668938D01*
X135345142Y-73657131D01*
X135378558Y-73637878D01*
X135406787Y-73611443D01*
X135432140Y-73574761D01*
X135454396Y-73525526D01*
X135581463Y-73541219D01*
X135554919Y-73611537D01*
X135517856Y-73668483D01*
X135470088Y-73714143D01*
X135428223Y-73740245D01*
X135380388Y-73759400D01*
X135325543Y-73771412D01*
X135262421Y-73775631D01*
X135183955Y-73768980D01*
X135117048Y-73750078D01*
X135059577Y-73719723D01*
X135009996Y-73677629D01*
X134970716Y-73626215D01*
X134941730Y-73564701D01*
X134923324Y-73491071D01*
X134916756Y-73402733D01*
X134922400Y-73325247D01*
X135050662Y-73325247D01*
X135455739Y-73325247D01*
X135445967Y-73266274D01*
X135430098Y-73222291D01*
X135409272Y-73190059D01*
X135377475Y-73159252D01*
X135342058Y-73137689D01*
X135302264Y-73124605D01*
X135256926Y-73120083D01*
X135202729Y-73126473D01*
X135155841Y-73145003D01*
X135114532Y-73175954D01*
X135082369Y-73216375D01*
X135060996Y-73265415D01*
X135050662Y-73325247D01*
X134922400Y-73325247D01*
X134923426Y-73311156D01*
X134942091Y-73234980D01*
X134971415Y-73171506D01*
X135011034Y-73118618D01*
X135061373Y-73074589D01*
X135117984Y-73043332D01*
X135182123Y-73024164D01*
X135255582Y-73017501D01*
X135326636Y-73024001D01*
G37*
G36*
X135735397Y-73760000D02*
G01*
X135735397Y-73033133D01*
X135846100Y-73033133D01*
X135846100Y-73135959D01*
X135881217Y-73093008D01*
X135921069Y-73060367D01*
X135966226Y-73036982D01*
X136017722Y-73022541D01*
X136076971Y-73017501D01*
X136140572Y-73023543D01*
X136197505Y-73041132D01*
X136246850Y-73069335D01*
X136279815Y-73102986D01*
X136302747Y-73144110D01*
X136318100Y-73193906D01*
X136322833Y-73234494D01*
X136324938Y-73313524D01*
X136324938Y-73760000D01*
X136201962Y-73760000D01*
X136201962Y-73317554D01*
X136197750Y-73247076D01*
X136187613Y-73204897D01*
X136167969Y-73171567D01*
X136136749Y-73145301D01*
X136097766Y-73128779D01*
X136051020Y-73123014D01*
X136000512Y-73128691D01*
X135955768Y-73145267D01*
X135915404Y-73173023D01*
X135892890Y-73199652D01*
X135875108Y-73237702D01*
X135862973Y-73290619D01*
X135858374Y-73362739D01*
X135858374Y-73760000D01*
X135735397Y-73760000D01*
G37*
G36*
X136988546Y-73760000D02*
G01*
X136988546Y-73653082D01*
X136951298Y-73698146D01*
X136910309Y-73732020D01*
X136865125Y-73755982D01*
X136814877Y-73770588D01*
X136758347Y-73775631D01*
X136695857Y-73769399D01*
X136638424Y-73751024D01*
X136588432Y-73722138D01*
X136555748Y-73689169D01*
X136533248Y-73648720D01*
X136517890Y-73597883D01*
X136512626Y-73556321D01*
X136510380Y-73483028D01*
X136510380Y-73033133D01*
X136633295Y-73033133D01*
X136633295Y-73436133D01*
X136635675Y-73524801D01*
X136640806Y-73566132D01*
X136651673Y-73596620D01*
X136667994Y-73621760D01*
X136690020Y-73642397D01*
X136716309Y-73657488D01*
X136746920Y-73666835D01*
X136782894Y-73670118D01*
X136836459Y-73663045D01*
X136886758Y-73641725D01*
X136916294Y-73620188D01*
X136938931Y-73594574D01*
X136955390Y-73564422D01*
X136969719Y-73509734D01*
X136975540Y-73422456D01*
X136975540Y-73033133D01*
X137098517Y-73033133D01*
X137098517Y-73760000D01*
X136988546Y-73760000D01*
G37*
%TO.C,REF\u002A\u002A*%
X150650000Y-88590000D02*
G75*
G02*
X149650000Y-88590000I-500000J0D01*
G01*
X149650000Y-88590000D02*
G75*
G02*
X150650000Y-88590000I500000J0D01*
G01*
X159640000Y-79600000D02*
G75*
G02*
X158640000Y-79600000I-500000J0D01*
G01*
X158640000Y-79600000D02*
G75*
G02*
X159640000Y-79600000I500000J0D01*
G01*
X133090000Y-68710000D02*
G75*
G02*
X132090000Y-68710000I-500000J0D01*
G01*
X132090000Y-68710000D02*
G75*
G02*
X133090000Y-68710000I500000J0D01*
G01*
X141660000Y-79570000D02*
G75*
G02*
X140660000Y-79570000I-500000J0D01*
G01*
X140660000Y-79570000D02*
G75*
G02*
X141660000Y-79570000I500000J0D01*
G01*
X150600000Y-70600000D02*
G75*
G02*
X149600000Y-70600000I-500000J0D01*
G01*
X149600000Y-70600000D02*
G75*
G02*
X150600000Y-70600000I500000J0D01*
G01*
%TD*%
M02*
