%TF.GenerationSoftware,KiCad,Pcbnew,9.0.2*%
%TF.CreationDate,2025-07-03T16:06:06-04:00*%
%TF.ProjectId,SteamDeck_Action_Buttons_Replacement_Pad,53746561-6d44-4656-936b-5f416374696f,rev?*%
%TF.SameCoordinates,Original*%
%TF.FileFunction,Copper,L1,Top*%
%TF.FilePolarity,Positive*%
%FSLAX46Y46*%
G04 Gerber Fmt 4.6, Leading zero omitted, Abs format (unit mm)*
G04 Created by KiCad (PCBNEW 9.0.2) date 2025-07-03 16:06:06*
%MOMM*%
%LPD*%
G01*
G04 APERTURE LIST*
G04 Aperture macros list*
%AMFreePoly0*
4,1,193,0.342602,0.129743,0.673118,0.071012,0.994661,-0.025422,1.302947,-0.158275,1.593866,-0.325775,1.863539,-0.525690,2.108374,-0.755355,2.325106,-1.011709,2.510846,-1.291334,2.663120,-1.590505,2.779896,-1.905232,2.859619,-2.231321,2.901225,-2.564426,2.904161,-2.900106,2.868388,-3.233888,2.794381,-3.561322,2.683128,-3.878044,2.536111,-4.179832,2.355290,-4.462663,2.143076,-4.722769,
1.902296,-4.956681,1.636160,-5.161283,1.348216,-5.333846,1.042301,-5.472071,0.722493,-5.574115,0.393056,-5.638619,0.058379,-5.664722,-0.277076,-5.652076,-0.608838,-5.600851,-0.932484,-5.511728,-1.243702,-5.385896,-1.538342,-5.225032,-1.812477,-5.031280,-2.062454,-4.807223,-2.284940,-4.555847,-2.476970,-4.280503,-2.635984,-3.984861,-2.635985,-3.984861,-2.638359,-3.973791,-2.644670,-3.961171,
-2.646454,-3.936057,-2.649987,-3.919590,-2.648160,-3.912044,-2.648818,-3.902791,-2.638237,-3.871047,-2.634282,-3.854707,-2.631767,-3.851636,-2.630311,-3.847268,-2.592107,-3.803218,-2.591981,-3.803064,-2.591968,-3.803058,-2.591964,-3.803053,-2.567078,-3.787388,-1.167082,-3.087388,-1.139619,-3.076878,-1.081239,-3.072730,-1.025716,-3.091237,-0.981501,-3.129584,-0.955326,-3.181933,-0.951178,-3.240313,
-0.969685,-3.295836,-1.008032,-3.340051,-1.032918,-3.355716,-2.302459,-3.990488,-2.297553,-4.001031,-2.131201,-4.268520,-1.933865,-4.514043,-1.708413,-4.734030,-1.458122,-4.925283,-1.186633,-5.085022,-0.897891,-5.210923,-0.596095,-5.301157,-0.285632,-5.354412,-0.100000,-5.363558,-0.100000,-3.721552,-0.098079,-3.702043,-0.083147,-3.665995,-0.055557,-3.638405,-0.019509,-3.623473,0.019509,-3.623473,
0.055557,-3.638405,0.083147,-3.665995,0.098079,-3.702043,0.100000,-3.721552,0.100000,-5.364832,0.343177,-5.347435,0.652381,-5.287306,0.952101,-5.190398,1.237978,-5.058121,1.505857,-4.892398,1.751842,-4.695639,1.972358,-4.470704,2.164198,-4.220863,2.170104,-4.210877,0.908543,-3.240446,0.887105,-3.220319,0.857903,-3.169597,0.850333,-3.111563,0.865548,-3.055048,0.901233,-3.008657,
0.951955,-2.979455,1.009989,-2.971885,1.066504,-2.987100,1.091457,-3.002658,2.323980,-3.950752,2.324574,-3.949749,2.451153,-3.661304,2.542096,-3.359721,2.596079,-3.049384,2.612319,-2.734806,2.590579,-2.420560,2.531175,-2.111215,2.434972,-1.811269,2.303366,-1.525082,2.280253,-1.487525,1.041457,-2.440446,1.016504,-2.456004,0.959989,-2.471219,0.901955,-2.463649,0.851233,-2.434447,
0.815548,-2.388056,0.800333,-2.331541,0.807903,-2.273507,0.837105,-2.222785,0.858543,-2.202658,2.119232,-1.232896,1.942092,-1.010368,1.717675,-0.789325,1.468286,-0.596898,1.197549,-0.435887,0.909402,-0.308630,0.608033,-0.216980,0.297824,-0.162268,0.100000,-0.151589,0.100000,-1.821552,0.098079,-1.841061,0.083147,-1.877109,0.055557,-1.904699,0.019509,-1.919631,-0.019509,-1.919631,
-0.055557,-1.904699,-0.083147,-1.877109,-0.098079,-1.841061,-0.100000,-1.821552,-0.099999,-0.150854,-0.331011,-0.166292,-0.640495,-0.224969,-0.940666,-0.320468,-1.227161,-0.451401,-1.495815,-0.615864,-1.742722,-0.811466,-1.964292,-1.035363,-2.157303,-1.284300,-2.318950,-1.554657,-2.320258,-1.557601,-1.042956,-2.082822,-1.016986,-2.096617,-0.975495,-2.137895,-0.952959,-2.191908,-0.952807,-2.250435,
-0.975065,-2.304566,-1.016344,-2.346057,-1.070357,-2.368593,-1.128884,-2.368745,-1.157045,-2.360281,-2.577020,-1.776396,-2.602989,-1.762601,-2.606254,-1.759352,-2.609871,-1.757745,-2.620732,-1.744947,-2.644480,-1.721322,-2.648052,-1.712760,-2.653069,-1.706850,-2.657313,-1.690565,-2.667017,-1.667310,-2.667053,-1.653195,-2.669906,-1.642251,-2.667118,-1.628048,-2.667168,-1.608782,-2.659836,-1.590953,
-2.657048,-1.576745,-2.657047,-1.576746,-2.503228,-1.278367,-2.316044,-0.999706,-2.097989,-0.744477,-1.851970,-0.516081,-1.581266,-0.317564,-1.289485,-0.151571,-0.980516,-0.020314,-0.658478,0.074456,-0.327663,0.131477,0.007520,0.149988,0.342602,0.129743,0.342602,0.129743,$1*%
%AMFreePoly1*
4,1,95,-1.260330,1.644659,-1.207990,1.618467,-1.186647,1.598240,-0.127680,0.376355,-0.052210,0.396578,0.052210,0.396578,0.091428,0.386069,0.877940,1.487186,0.897294,1.509324,0.946949,1.540305,1.004679,1.549927,1.061697,1.536724,1.109324,1.502705,1.140305,1.453051,1.149927,1.395321,1.136724,1.338302,1.122060,1.312814,0.335635,0.211818,0.354201,0.179661,0.369552,0.153073,
0.370375,0.150000,2.200000,0.150000,2.229264,0.147118,2.283336,0.124720,2.324720,0.083336,2.347118,0.029264,2.347118,-0.029264,2.324720,-0.083336,2.283336,-0.124720,2.229264,-0.147118,2.200000,-0.150000,0.370375,-0.150000,0.369552,-0.153073,0.340301,-0.203735,1.320000,-1.510000,1.335253,-1.535140,1.349778,-1.591837,1.341501,-1.649774,1.311682,-1.700136,1.264860,-1.735253,
1.208163,-1.749778,1.150226,-1.741501,1.099864,-1.711682,1.080000,-1.690000,0.100274,-0.383699,0.052210,-0.396578,-0.052210,-0.396578,-0.127680,-0.376355,-1.186647,-1.598240,-1.207990,-1.618467,-1.260330,-1.644659,-1.318707,-1.648829,-1.374238,-1.630341,-1.418467,-1.592010,-1.444659,-1.539670,-1.448829,-1.481293,-1.430341,-1.425762,-1.413353,-1.401760,-0.354200,-0.179661,-0.369552,-0.153073,
-0.370375,-0.150000,-2.543779,-0.150000,-2.521671,-0.348872,-2.497373,-0.466012,-2.498698,-0.532755,-2.528850,-0.592314,-2.581858,-0.632892,-2.647222,-0.646452,-2.711997,-0.630309,-2.763353,-0.587660,-2.791119,-0.526952,-2.833056,-0.263118,-2.850087,0.003484,-2.842061,0.270510,-2.809049,0.535608,-2.783348,0.597218,-2.733460,0.641576,-2.669267,0.659896,-2.603482,0.648548,-2.549135,0.609782,
-2.516991,0.551275,-2.513415,0.484614,-2.533746,0.366721,-2.550460,0.150000,-0.370375,0.150000,-0.369552,0.153073,-0.354200,0.179661,-1.413353,1.401760,-1.430341,1.425762,-1.448829,1.481293,-1.444659,1.539670,-1.418467,1.592010,-1.374238,1.630341,-1.318707,1.648829,-1.260330,1.644659,-1.260330,1.644659,$1*%
G04 Aperture macros list end*
%TA.AperFunction,Conductor*%
%ADD10C,0.200000*%
%TD*%
%TA.AperFunction,SMDPad,CuDef*%
%ADD11FreePoly0,90.000000*%
%TD*%
%TA.AperFunction,SMDPad,CuDef*%
%ADD12FreePoly1,90.000000*%
%TD*%
%TA.AperFunction,SMDPad,CuDef*%
%ADD13FreePoly0,0.000000*%
%TD*%
%TA.AperFunction,SMDPad,CuDef*%
%ADD14FreePoly1,0.000000*%
%TD*%
%TA.AperFunction,SMDPad,CuDef*%
%ADD15FreePoly0,180.000000*%
%TD*%
%TA.AperFunction,SMDPad,CuDef*%
%ADD16FreePoly1,180.000000*%
%TD*%
%TA.AperFunction,ViaPad*%
%ADD17C,0.500000*%
%TD*%
%TA.AperFunction,ViaPad*%
%ADD18C,0.600000*%
%TD*%
%TA.AperFunction,ViaPad*%
%ADD19C,0.400000*%
%TD*%
%TA.AperFunction,Conductor*%
%ADD20C,0.150000*%
%TD*%
G04 APERTURE END LIST*
%TO.N,GND*%
D10*
X157110000Y-95110000D02*
X158930000Y-95110000D01*
X158930000Y-96790000D01*
X157110000Y-96790000D01*
X157110000Y-95110000D01*
%TA.AperFunction,Conductor*%
G36*
X157110000Y-95110000D02*
G01*
X158930000Y-95110000D01*
X158930000Y-96790000D01*
X157110000Y-96790000D01*
X157110000Y-95110000D01*
G37*
%TD.AperFunction*%
%TD*%
D11*
%TO.P,REF\u002A\u002A,1*%
%TO.N,GND*%
X147428448Y-88590000D03*
D12*
%TO.P,REF\u002A\u002A,2*%
%TO.N,A-Button*%
X150150000Y-88590000D03*
%TD*%
D13*
%TO.P,REF\u002A\u002A,1*%
%TO.N,GND*%
X159140000Y-76878448D03*
D14*
%TO.P,REF\u002A\u002A,2*%
%TO.N,B-Button*%
X159140000Y-79600000D03*
%TD*%
D15*
%TO.P,REF\u002A\u002A,1*%
%TO.N,GND*%
X132590000Y-71431552D03*
D16*
%TO.P,REF\u002A\u002A,2*%
%TO.N,Menu-Button*%
X132590000Y-68710000D03*
%TD*%
D15*
%TO.P,REF\u002A\u002A,1*%
%TO.N,GND*%
X141160000Y-82291552D03*
D16*
%TO.P,REF\u002A\u002A,2*%
%TO.N,X-Button*%
X141160000Y-79570000D03*
%TD*%
D11*
%TO.P,REF\u002A\u002A,1*%
%TO.N,GND*%
X147378448Y-70600000D03*
D12*
%TO.P,REF\u002A\u002A,2*%
%TO.N,Y-Button*%
X150100000Y-70600000D03*
%TD*%
D17*
%TO.N,Y-Button*%
X173410000Y-91910000D03*
D18*
X156216587Y-89783413D03*
X151300000Y-74700000D03*
D19*
%TO.N,GND*%
X174040000Y-95380000D03*
D18*
X157500000Y-75900000D03*
D19*
X175580918Y-92729000D03*
X175730000Y-94760000D03*
D17*
X157970000Y-95870000D03*
D18*
X145600000Y-70600000D03*
D19*
X174540000Y-91781000D03*
D18*
X143280000Y-83780000D03*
X135730000Y-72170000D03*
D19*
X173810000Y-93725000D03*
D18*
X153500000Y-90800000D03*
%TO.N,B-Button*%
X154900000Y-79600000D03*
D17*
%TO.N,X-Button*%
X145390000Y-80670000D03*
D18*
%TO.N,A-Button*%
X151200000Y-92800000D03*
%TO.N,Menu-Button*%
X137200000Y-70400000D03*
X146740000Y-78350000D03*
D17*
X156263768Y-92266232D03*
%TD*%
D20*
%TO.N,Y-Button*%
X158950000Y-92580000D02*
X172780000Y-92580000D01*
X156228194Y-89858194D02*
X158950000Y-92580000D01*
X173390000Y-91910000D02*
X173390000Y-91920000D01*
X151300000Y-74700000D02*
X150100000Y-73500000D01*
X172780000Y-92580000D02*
X173440000Y-91920000D01*
X150100000Y-73500000D02*
X150100000Y-70700000D01*
%TO.N,GND*%
X141170000Y-82470000D02*
X141170000Y-82100000D01*
X157450000Y-94025000D02*
X157450000Y-95380000D01*
X143725000Y-72170000D02*
X144030000Y-72170000D01*
X158050000Y-95920000D02*
X158020000Y-95950000D01*
X175131000Y-91781000D02*
X174540000Y-91781000D01*
X145950000Y-78374588D02*
X145000000Y-77424588D01*
X147428448Y-85503448D02*
X147428448Y-88590000D01*
X157125000Y-93700000D02*
X157450000Y-94025000D01*
X145000000Y-77424588D02*
X145000000Y-72975000D01*
X143280000Y-83780000D02*
X143220000Y-83720000D01*
X174040000Y-95135000D02*
X174415000Y-94760000D01*
X135600000Y-72300000D02*
X135700000Y-72200000D01*
X147378448Y-70600000D02*
X145700000Y-70600000D01*
X174415000Y-94760000D02*
X175730000Y-94760000D01*
X173810000Y-93725000D02*
X173835000Y-93750000D01*
X174040000Y-95380000D02*
X174040000Y-95135000D01*
X175710000Y-94760000D02*
X175730000Y-94760000D01*
X153500000Y-89700000D02*
X153500000Y-90800000D01*
X175580918Y-92729000D02*
X175580918Y-92230918D01*
X157970000Y-95870000D02*
X157600000Y-95870000D01*
X143725000Y-72170000D02*
X135730000Y-72170000D01*
X143280000Y-83780000D02*
X144420000Y-83780000D01*
X157990000Y-95920000D02*
X158050000Y-95920000D01*
X143795000Y-72170000D02*
X143725000Y-72170000D01*
X174584918Y-93725000D02*
X175580918Y-92729000D01*
X173810000Y-93725000D02*
X174584918Y-93725000D01*
X158020000Y-95950000D02*
X158400000Y-95570000D01*
X158400000Y-95570000D02*
X158400000Y-94075000D01*
X144420000Y-83780000D02*
X145950000Y-82250000D01*
X143280000Y-83780000D02*
X145705000Y-83780000D01*
X174700000Y-93750000D02*
X175710000Y-94760000D01*
X157450000Y-95380000D02*
X157990000Y-95920000D01*
X145705000Y-83780000D02*
X147428448Y-85503448D01*
X152900000Y-89100000D02*
X153500000Y-89700000D01*
X144030000Y-72170000D02*
X145600000Y-70600000D01*
X145600000Y-70600000D02*
X145600000Y-72400000D01*
X145000000Y-72975000D02*
X145600000Y-72375000D01*
X153500000Y-92175000D02*
X155025000Y-93700000D01*
X145600000Y-72375000D02*
X145600000Y-70600000D01*
X133458448Y-72300000D02*
X134100000Y-72300000D01*
X153500000Y-90800000D02*
X153500000Y-92175000D01*
X143220000Y-83720000D02*
X142420000Y-83720000D01*
X158750000Y-93725000D02*
X173810000Y-93725000D01*
X156850000Y-76550000D02*
X157500000Y-75900000D01*
X155025000Y-93700000D02*
X157125000Y-93700000D01*
X132590000Y-71431552D02*
X133458448Y-72300000D01*
X158161552Y-75900000D02*
X157500000Y-75900000D01*
X173835000Y-93750000D02*
X174700000Y-93750000D01*
X145950000Y-82250000D02*
X145950000Y-78374588D01*
X158400000Y-94075000D02*
X158750000Y-93725000D01*
X159140000Y-76878448D02*
X158161552Y-75900000D01*
X145600000Y-72400000D02*
X149750000Y-76550000D01*
X142420000Y-83720000D02*
X141170000Y-82470000D01*
X135710000Y-72140000D02*
X135730000Y-72160000D01*
X175580918Y-92230918D02*
X175131000Y-91781000D01*
X149750000Y-76550000D02*
X156850000Y-76550000D01*
X134100000Y-72300000D02*
X135600000Y-72300000D01*
%TO.N,B-Button*%
X154900000Y-79600000D02*
X159140000Y-79600000D01*
%TO.N,X-Button*%
X145390000Y-80670000D02*
X145303938Y-80583938D01*
X141160000Y-79570000D02*
X144270000Y-79570000D01*
X144270000Y-79570000D02*
X145400000Y-80700000D01*
%TO.N,A-Button*%
X151200000Y-92800000D02*
X151200000Y-92400000D01*
X150100000Y-91300000D02*
X150100000Y-88600000D01*
X151200000Y-92400000D02*
X150100000Y-91300000D01*
%TO.N,Menu-Button*%
X135510000Y-68710000D02*
X137200000Y-70400000D01*
X156263768Y-92266232D02*
X156030000Y-92032464D01*
X156030000Y-92030000D02*
X155360000Y-91360000D01*
X132590000Y-68710000D02*
X135510000Y-68710000D01*
X148660000Y-83140000D02*
X146750000Y-81230000D01*
X156030000Y-92032464D02*
X156030000Y-92030000D01*
X155360000Y-91360000D02*
X155360000Y-85400000D01*
X146750000Y-81230000D02*
X146750000Y-78374226D01*
X153100000Y-83140000D02*
X148660000Y-83140000D01*
X155360000Y-85400000D02*
X153100000Y-83140000D01*
%TD*%
%TA.AperFunction,Conductor*%
%TO.N,GND*%
G36*
X134956239Y-65811588D02*
G01*
X137466028Y-65892237D01*
X137508275Y-65901116D01*
X138158703Y-66162525D01*
X138160385Y-66163217D01*
X138216620Y-66186880D01*
X138216629Y-66186881D01*
X138218132Y-66187293D01*
X138218138Y-66187295D01*
X138221505Y-66188217D01*
X138221506Y-66188218D01*
X138221525Y-66188223D01*
X138222436Y-66188472D01*
X138222967Y-66188577D01*
X138224494Y-66188969D01*
X138248236Y-66191839D01*
X138284917Y-66196276D01*
X138286798Y-66196518D01*
X148158121Y-67552274D01*
X148221857Y-67580896D01*
X148260001Y-67639435D01*
X148260442Y-67709303D01*
X148223040Y-67768319D01*
X148215705Y-67774277D01*
X147952431Y-67971971D01*
X147907903Y-68009617D01*
X147664083Y-68241171D01*
X147664071Y-68241183D01*
X147624191Y-68283697D01*
X147624189Y-68283700D01*
X147408686Y-68541806D01*
X147408668Y-68541830D01*
X147401883Y-68550984D01*
X147401882Y-68550986D01*
X147373964Y-68588647D01*
X147373948Y-68588669D01*
X147189643Y-68869877D01*
X147160536Y-68920429D01*
X147009862Y-69221022D01*
X146986787Y-69274572D01*
X146986775Y-69274602D01*
X146871759Y-69590541D01*
X146855006Y-69646397D01*
X146777160Y-69973532D01*
X146773348Y-69994993D01*
X146773347Y-69994995D01*
X146772504Y-69999740D01*
X146772503Y-69999747D01*
X146766963Y-70030919D01*
X146766961Y-70030928D01*
X146727341Y-70364843D01*
X146727340Y-70364852D01*
X146723825Y-70423038D01*
X146722956Y-70759322D01*
X146726169Y-70817502D01*
X146726170Y-70817512D01*
X146751967Y-71044973D01*
X146764063Y-71151629D01*
X146764068Y-71151666D01*
X146773258Y-71204989D01*
X146773259Y-71204989D01*
X146773969Y-71209109D01*
X146850113Y-71536603D01*
X146866582Y-71592566D01*
X146979968Y-71909110D01*
X147002767Y-71962777D01*
X147002769Y-71962781D01*
X147151891Y-72264161D01*
X147151899Y-72264174D01*
X147180720Y-72314835D01*
X147180724Y-72314843D01*
X147363584Y-72597018D01*
X147363605Y-72597049D01*
X147398064Y-72644041D01*
X147398066Y-72644043D01*
X147612227Y-72903258D01*
X147612230Y-72903262D01*
X147651911Y-72946005D01*
X147651914Y-72946009D01*
X147894532Y-73178819D01*
X147894542Y-73178828D01*
X147938858Y-73216691D01*
X148206700Y-73419992D01*
X148206733Y-73420016D01*
X148255104Y-73452508D01*
X148544611Y-73623592D01*
X148596632Y-73650394D01*
X148728583Y-73708972D01*
X148728600Y-73708980D01*
X148760069Y-73722956D01*
X148760106Y-73722972D01*
X148781372Y-73732425D01*
X148859088Y-73759620D01*
X149001918Y-73775715D01*
X149025279Y-73775001D01*
X149025289Y-73775001D01*
X149070511Y-73773619D01*
X149071870Y-73773531D01*
X149101704Y-73771853D01*
X149107733Y-73770915D01*
X149107944Y-73772271D01*
X149170798Y-73774327D01*
X149203997Y-73791147D01*
X149237106Y-73814764D01*
X149307873Y-73856991D01*
X149307875Y-73856991D01*
X149307876Y-73856992D01*
X149444728Y-73901373D01*
X149444733Y-73901374D01*
X149444736Y-73901375D01*
X149478474Y-73907194D01*
X149478481Y-73907195D01*
X149610256Y-73929921D01*
X149657298Y-73935778D01*
X149685934Y-73937986D01*
X149690266Y-73938630D01*
X149718161Y-73951528D01*
X149746903Y-73962431D01*
X149752738Y-73967516D01*
X149753685Y-73967954D01*
X149754237Y-73968822D01*
X149759722Y-73973602D01*
X150463181Y-74677060D01*
X150496666Y-74738383D01*
X150499500Y-74764741D01*
X150499500Y-74778846D01*
X150530261Y-74933489D01*
X150530264Y-74933501D01*
X150590602Y-75079172D01*
X150590609Y-75079185D01*
X150678210Y-75210288D01*
X150678213Y-75210292D01*
X150789707Y-75321786D01*
X150789711Y-75321789D01*
X150920814Y-75409390D01*
X150920827Y-75409397D01*
X151066498Y-75469735D01*
X151066503Y-75469737D01*
X151221153Y-75500499D01*
X151221156Y-75500500D01*
X151221158Y-75500500D01*
X151378844Y-75500500D01*
X151378845Y-75500499D01*
X151533497Y-75469737D01*
X151679179Y-75409394D01*
X151810289Y-75321789D01*
X151921789Y-75210289D01*
X152009394Y-75079179D01*
X152069737Y-74933497D01*
X152100500Y-74778842D01*
X152100500Y-74621158D01*
X152100500Y-74621155D01*
X152100499Y-74621153D01*
X152085838Y-74547450D01*
X152069737Y-74466503D01*
X152055637Y-74432462D01*
X152009397Y-74320827D01*
X152009390Y-74320814D01*
X151921789Y-74189711D01*
X151921786Y-74189707D01*
X151810292Y-74078213D01*
X151810288Y-74078210D01*
X151679185Y-73990609D01*
X151679172Y-73990602D01*
X151548029Y-73936282D01*
X151532812Y-73924019D01*
X151514972Y-73916031D01*
X151506164Y-73902545D01*
X151493625Y-73892441D01*
X151487452Y-73873897D01*
X151476765Y-73857533D01*
X151476646Y-73841427D01*
X151471560Y-73826147D01*
X151476393Y-73807210D01*
X151476249Y-73787666D01*
X151484855Y-73774053D01*
X151488839Y-73758448D01*
X151503144Y-73745129D01*
X151513589Y-73728610D01*
X151538039Y-73712640D01*
X151539976Y-73710837D01*
X151543138Y-73709310D01*
X151555012Y-73703781D01*
X151562168Y-73700937D01*
X151562146Y-73700882D01*
X151566239Y-73699188D01*
X151582939Y-73690836D01*
X151586119Y-73689302D01*
X151728700Y-73622997D01*
X151780259Y-73595279D01*
X152066688Y-73419182D01*
X152066694Y-73419178D01*
X152114519Y-73385824D01*
X152378780Y-73177857D01*
X152422431Y-73139223D01*
X152660945Y-72902199D01*
X152660947Y-72902196D01*
X152699861Y-72858783D01*
X152909471Y-72595841D01*
X152943126Y-72548223D01*
X152943131Y-72548215D01*
X153121024Y-72262887D01*
X153148970Y-72211701D01*
X153292791Y-71907773D01*
X153292798Y-71907757D01*
X153314643Y-71853728D01*
X153314650Y-71853709D01*
X153422488Y-71535214D01*
X153422491Y-71535203D01*
X153437965Y-71479010D01*
X153437970Y-71478990D01*
X153508380Y-71150187D01*
X153508380Y-71150183D01*
X153517275Y-71092574D01*
X153549319Y-70757829D01*
X153549320Y-70757812D01*
X153551514Y-70699569D01*
X153544763Y-70363386D01*
X153540228Y-70305243D01*
X153540227Y-70305241D01*
X153494775Y-69972085D01*
X153483572Y-69914869D01*
X153483568Y-69914853D01*
X153400012Y-69589134D01*
X153382296Y-69533610D01*
X153261753Y-69219687D01*
X153261744Y-69219664D01*
X153237755Y-69166573D01*
X153237732Y-69166526D01*
X153161637Y-69021123D01*
X153147992Y-68952599D01*
X153173561Y-68887576D01*
X153230225Y-68846698D01*
X153299994Y-68842945D01*
X153335868Y-68857642D01*
X155111158Y-69935909D01*
X155132578Y-69952361D01*
X155180565Y-69998349D01*
X155180864Y-69998635D01*
X155181954Y-69999693D01*
X155729512Y-70537812D01*
X155740469Y-70550116D01*
X155744187Y-70554895D01*
X155759903Y-70575102D01*
X155785522Y-70640105D01*
X155785604Y-70641056D01*
X156029999Y-73609999D01*
X156046972Y-73629636D01*
X156060511Y-73637263D01*
X156093183Y-73699023D01*
X156095352Y-73714770D01*
X156105034Y-73847668D01*
X156105035Y-73847677D01*
X156107526Y-73856991D01*
X156144034Y-73993513D01*
X156144035Y-73993515D01*
X156144035Y-73993516D01*
X156209681Y-74129455D01*
X156209682Y-74129456D01*
X156299641Y-74250672D01*
X156299653Y-74250685D01*
X156410737Y-74352885D01*
X156410741Y-74352887D01*
X156410744Y-74352890D01*
X156539031Y-74432463D01*
X156679961Y-74486575D01*
X156828537Y-74513310D01*
X156904013Y-74512446D01*
X156969901Y-74511752D01*
X156973308Y-74510800D01*
X156984552Y-74510535D01*
X156985060Y-74510671D01*
X156987479Y-74510500D01*
X158394108Y-74510500D01*
X158464108Y-74510500D01*
X158482445Y-74510500D01*
X158537779Y-74523531D01*
X158585747Y-74547450D01*
X158645105Y-74577129D01*
X158645106Y-74577129D01*
X158651712Y-74580432D01*
X158652845Y-74580907D01*
X161952310Y-76226169D01*
X162020834Y-76260338D01*
X162072044Y-76307870D01*
X162089500Y-76371307D01*
X162089500Y-77508901D01*
X162069815Y-77575940D01*
X162017011Y-77621695D01*
X161947853Y-77631639D01*
X161884297Y-77602614D01*
X161866343Y-77583359D01*
X161768028Y-77452431D01*
X161730382Y-77407903D01*
X161498828Y-77164083D01*
X161498816Y-77164071D01*
X161456310Y-77124199D01*
X161198173Y-76908671D01*
X161151351Y-76873962D01*
X161151343Y-76873956D01*
X160870122Y-76689643D01*
X160819570Y-76660536D01*
X160518977Y-76509862D01*
X160465427Y-76486787D01*
X160465397Y-76486775D01*
X160149458Y-76371759D01*
X160093602Y-76355006D01*
X159766481Y-76277163D01*
X159709065Y-76266961D01*
X159709070Y-76266961D01*
X159375156Y-76227341D01*
X159375147Y-76227340D01*
X159316961Y-76223825D01*
X158980677Y-76222956D01*
X158922497Y-76226169D01*
X158922487Y-76226170D01*
X158588370Y-76264063D01*
X158588340Y-76264067D01*
X158530904Y-76273966D01*
X158530900Y-76273967D01*
X158203399Y-76350112D01*
X158147433Y-76366582D01*
X157830889Y-76479968D01*
X157777222Y-76502767D01*
X157777218Y-76502769D01*
X157475838Y-76651891D01*
X157475825Y-76651899D01*
X157425164Y-76680720D01*
X157425156Y-76680724D01*
X157142981Y-76863584D01*
X157142950Y-76863605D01*
X157095958Y-76898064D01*
X157095956Y-76898066D01*
X156836741Y-77112227D01*
X156836737Y-77112230D01*
X156793994Y-77151911D01*
X156793990Y-77151914D01*
X156561180Y-77394532D01*
X156561171Y-77394542D01*
X156523308Y-77438858D01*
X156320007Y-77706700D01*
X156319983Y-77706733D01*
X156287491Y-77755104D01*
X156116407Y-78044611D01*
X156089605Y-78096632D01*
X156038959Y-78210717D01*
X156038957Y-78210721D01*
X156031024Y-78228589D01*
X156027500Y-78235438D01*
X156027554Y-78235465D01*
X156025587Y-78239418D01*
X156018413Y-78256866D01*
X156017044Y-78260065D01*
X156007579Y-78281361D01*
X156007577Y-78281365D01*
X155980379Y-78359088D01*
X155964283Y-78501918D01*
X155964283Y-78501924D01*
X155964997Y-78525267D01*
X155966389Y-78570633D01*
X155966458Y-78571707D01*
X155968146Y-78601704D01*
X155969084Y-78607726D01*
X155967735Y-78607935D01*
X155965661Y-78670831D01*
X155948850Y-78704000D01*
X155925239Y-78737100D01*
X155883010Y-78807870D01*
X155883009Y-78807872D01*
X155883009Y-78807873D01*
X155847492Y-78917396D01*
X155840566Y-78938752D01*
X155826607Y-78959189D01*
X155816326Y-78981703D01*
X155807245Y-78987538D01*
X155801160Y-78996449D01*
X155778370Y-79006095D01*
X155757548Y-79019477D01*
X155741204Y-79021826D01*
X155736817Y-79023684D01*
X155722613Y-79024500D01*
X155507941Y-79024500D01*
X155440902Y-79004815D01*
X155420260Y-78988181D01*
X155410292Y-78978213D01*
X155410288Y-78978210D01*
X155279185Y-78890609D01*
X155279172Y-78890602D01*
X155133501Y-78830264D01*
X155133489Y-78830261D01*
X154978845Y-78799500D01*
X154978842Y-78799500D01*
X154821158Y-78799500D01*
X154821155Y-78799500D01*
X154666510Y-78830261D01*
X154666498Y-78830264D01*
X154520827Y-78890602D01*
X154520814Y-78890609D01*
X154389711Y-78978210D01*
X154389707Y-78978213D01*
X154278213Y-79089707D01*
X154278210Y-79089711D01*
X154190609Y-79220814D01*
X154190602Y-79220827D01*
X154130264Y-79366498D01*
X154130261Y-79366510D01*
X154099500Y-79521153D01*
X154099500Y-79678846D01*
X154130261Y-79833489D01*
X154130264Y-79833501D01*
X154190602Y-79979172D01*
X154190609Y-79979185D01*
X154278210Y-80110288D01*
X154278213Y-80110292D01*
X154389707Y-80221786D01*
X154389711Y-80221789D01*
X154520814Y-80309390D01*
X154520827Y-80309397D01*
X154600063Y-80342217D01*
X154666503Y-80369737D01*
X154821153Y-80400499D01*
X154821156Y-80400500D01*
X154821158Y-80400500D01*
X154978844Y-80400500D01*
X154978845Y-80400499D01*
X155133497Y-80369737D01*
X155279179Y-80309394D01*
X155410289Y-80221789D01*
X155415057Y-80217021D01*
X155420260Y-80211819D01*
X155447187Y-80197115D01*
X155473006Y-80180523D01*
X155479206Y-80179631D01*
X155481583Y-80178334D01*
X155507941Y-80175500D01*
X155742311Y-80175500D01*
X155809350Y-80195185D01*
X155855105Y-80247989D01*
X155861269Y-80264499D01*
X155884135Y-80342215D01*
X155884136Y-80342217D01*
X155954445Y-80467748D01*
X155954446Y-80467750D01*
X155986119Y-80509123D01*
X155998034Y-80540048D01*
X156010878Y-80570608D01*
X156010698Y-80572914D01*
X156011240Y-80574321D01*
X156009800Y-80605886D01*
X156004522Y-80636028D01*
X156004334Y-80636407D01*
X156001947Y-80647500D01*
X155994854Y-80673306D01*
X155994853Y-80673314D01*
X155991987Y-80713136D01*
X155990867Y-80723074D01*
X155985492Y-80758033D01*
X155985340Y-80769795D01*
X155985339Y-80769808D01*
X155984814Y-80809819D01*
X155984815Y-80809820D01*
X155984629Y-80824125D01*
X155984627Y-80824128D01*
X155984628Y-80824130D01*
X155984608Y-80825646D01*
X155984609Y-80825677D01*
X155990248Y-80907824D01*
X155990250Y-80907834D01*
X155991460Y-80911845D01*
X155991459Y-80911845D01*
X156011231Y-80977390D01*
X156031757Y-81045429D01*
X156031762Y-81045442D01*
X156036220Y-81055016D01*
X156036231Y-81055038D01*
X156050679Y-81086083D01*
X156050694Y-81086115D01*
X156117002Y-81228699D01*
X156144720Y-81280259D01*
X156320817Y-81566688D01*
X156320821Y-81566694D01*
X156354175Y-81614519D01*
X156562142Y-81878780D01*
X156600776Y-81922431D01*
X156837800Y-82160945D01*
X156837803Y-82160947D01*
X156881216Y-82199861D01*
X157144158Y-82409471D01*
X157191776Y-82443126D01*
X157191784Y-82443131D01*
X157477112Y-82621024D01*
X157528298Y-82648970D01*
X157832226Y-82792791D01*
X157832242Y-82792798D01*
X157886271Y-82814643D01*
X157886290Y-82814650D01*
X158204785Y-82922488D01*
X158204796Y-82922491D01*
X158260989Y-82937965D01*
X158261009Y-82937970D01*
X158589814Y-83008380D01*
X158647425Y-83017275D01*
X158982170Y-83049319D01*
X158982187Y-83049320D01*
X159040430Y-83051514D01*
X159376613Y-83044763D01*
X159434756Y-83040228D01*
X159434758Y-83040227D01*
X159767914Y-82994775D01*
X159825130Y-82983572D01*
X159825146Y-82983568D01*
X160150865Y-82900012D01*
X160206389Y-82882296D01*
X160520312Y-82761753D01*
X160520335Y-82761744D01*
X160573426Y-82737755D01*
X160573473Y-82737732D01*
X160871356Y-82581838D01*
X160871369Y-82581831D01*
X160921380Y-82551859D01*
X160921396Y-82551848D01*
X161199339Y-82362652D01*
X161199356Y-82362639D01*
X161245559Y-82327121D01*
X161245567Y-82327115D01*
X161499891Y-82107108D01*
X161541692Y-82066500D01*
X161541722Y-82066470D01*
X161768956Y-81818657D01*
X161768976Y-81818633D01*
X161805814Y-81773482D01*
X161805845Y-81773442D01*
X161865056Y-81691649D01*
X161920312Y-81648887D01*
X161989915Y-81642787D01*
X162051766Y-81675286D01*
X162086229Y-81736065D01*
X162089500Y-81764360D01*
X162089500Y-89595500D01*
X162069815Y-89662539D01*
X162017011Y-89708294D01*
X161965500Y-89719500D01*
X160253938Y-89719500D01*
X160222272Y-89715186D01*
X160188326Y-89719500D01*
X160140292Y-89719500D01*
X160073253Y-89699815D01*
X160027498Y-89647011D01*
X160017554Y-89577853D01*
X160017819Y-89576102D01*
X160040500Y-89432901D01*
X160040500Y-89187098D01*
X160013032Y-89013676D01*
X160002050Y-88944339D01*
X159926096Y-88710578D01*
X159814510Y-88491576D01*
X159670037Y-88292727D01*
X159496236Y-88118926D01*
X159297387Y-87974453D01*
X159078385Y-87862867D01*
X158844624Y-87786913D01*
X158844622Y-87786912D01*
X158844620Y-87786912D01*
X158601864Y-87748463D01*
X158601859Y-87748463D01*
X158356067Y-87748463D01*
X158356062Y-87748463D01*
X158113305Y-87786912D01*
X157879538Y-87862868D01*
X157660538Y-87974453D01*
X157596584Y-88020919D01*
X157461690Y-88118926D01*
X157461688Y-88118928D01*
X157461687Y-88118928D01*
X157287891Y-88292724D01*
X157287891Y-88292725D01*
X157287889Y-88292727D01*
X157242759Y-88354843D01*
X157143416Y-88491575D01*
X157031831Y-88710575D01*
X156955875Y-88944342D01*
X156932926Y-89089236D01*
X156902997Y-89152371D01*
X156843685Y-89189302D01*
X156773822Y-89188304D01*
X156733043Y-89163713D01*
X156731586Y-89165489D01*
X156726875Y-89161623D01*
X156595772Y-89074022D01*
X156595759Y-89074015D01*
X156450088Y-89013677D01*
X156450076Y-89013674D01*
X156295432Y-88982913D01*
X156295429Y-88982913D01*
X156137745Y-88982913D01*
X156137740Y-88982913D01*
X156083691Y-88993664D01*
X156014099Y-88987437D01*
X155958922Y-88944573D01*
X155935678Y-88878683D01*
X155935500Y-88872047D01*
X155935500Y-85324236D01*
X155935500Y-85324234D01*
X155896281Y-85177865D01*
X155820515Y-85046635D01*
X155713365Y-84939485D01*
X153453365Y-82679485D01*
X153387750Y-82641602D01*
X153322136Y-82603719D01*
X153240447Y-82581831D01*
X153175766Y-82564500D01*
X153175765Y-82564500D01*
X148949742Y-82564500D01*
X148882703Y-82544815D01*
X148862061Y-82528181D01*
X147361819Y-81027939D01*
X147328334Y-80966616D01*
X147325500Y-80940258D01*
X147325500Y-79449040D01*
X147640644Y-79449040D01*
X147640644Y-79730959D01*
X147672206Y-80011078D01*
X147672208Y-80011094D01*
X147734937Y-80285931D01*
X147734941Y-80285943D01*
X147828044Y-80552014D01*
X147828050Y-80552028D01*
X147950361Y-80806010D01*
X147961743Y-80824125D01*
X148100347Y-81044712D01*
X148192302Y-81160019D01*
X148253998Y-81237384D01*
X148276115Y-81265117D01*
X148475455Y-81464457D01*
X148695860Y-81640225D01*
X148934559Y-81790209D01*
X149188551Y-81912525D01*
X149188557Y-81912527D01*
X149454628Y-82005630D01*
X149454640Y-82005634D01*
X149729481Y-82068364D01*
X150009613Y-82099927D01*
X150009614Y-82099928D01*
X150009617Y-82099928D01*
X150291530Y-82099928D01*
X150291530Y-82099927D01*
X150571663Y-82068364D01*
X150846504Y-82005634D01*
X151112593Y-81912525D01*
X151366585Y-81790209D01*
X151605284Y-81640225D01*
X151825689Y-81464457D01*
X152025029Y-81265117D01*
X152200797Y-81044712D01*
X152350781Y-80806013D01*
X152473097Y-80552021D01*
X152566206Y-80285932D01*
X152628936Y-80011091D01*
X152660500Y-79730955D01*
X152660500Y-79449045D01*
X152628936Y-79168909D01*
X152566206Y-78894068D01*
X152543012Y-78827785D01*
X152473099Y-78627985D01*
X152473097Y-78627979D01*
X152350781Y-78373987D01*
X152200797Y-78135288D01*
X152025029Y-77914883D01*
X151825689Y-77715543D01*
X151605284Y-77539775D01*
X151440429Y-77436190D01*
X151366582Y-77389789D01*
X151112600Y-77267478D01*
X151112586Y-77267472D01*
X150846515Y-77174369D01*
X150846503Y-77174365D01*
X150571666Y-77111636D01*
X150571650Y-77111634D01*
X150291531Y-77080072D01*
X150291527Y-77080072D01*
X150009617Y-77080072D01*
X150009612Y-77080072D01*
X149729493Y-77111634D01*
X149729477Y-77111636D01*
X149454640Y-77174365D01*
X149454628Y-77174369D01*
X149188557Y-77267472D01*
X149188543Y-77267478D01*
X148934561Y-77389789D01*
X148695861Y-77539774D01*
X148475455Y-77715542D01*
X148276114Y-77914883D01*
X148100346Y-78135289D01*
X147950361Y-78373989D01*
X147828050Y-78627971D01*
X147828044Y-78627985D01*
X147734941Y-78894056D01*
X147734937Y-78894068D01*
X147672208Y-79168905D01*
X147672206Y-79168921D01*
X147640644Y-79449040D01*
X147325500Y-79449040D01*
X147325500Y-78947940D01*
X147345185Y-78880901D01*
X147357970Y-78865036D01*
X147357924Y-78864999D01*
X147361787Y-78860291D01*
X147361789Y-78860289D01*
X147449394Y-78729179D01*
X147509737Y-78583497D01*
X147540500Y-78428842D01*
X147540500Y-78271158D01*
X147540500Y-78271155D01*
X147540499Y-78271153D01*
X147537657Y-78256866D01*
X147509737Y-78116503D01*
X147496224Y-78083879D01*
X147449397Y-77970827D01*
X147449390Y-77970814D01*
X147361789Y-77839711D01*
X147361786Y-77839707D01*
X147250292Y-77728213D01*
X147250288Y-77728210D01*
X147119185Y-77640609D01*
X147119172Y-77640602D01*
X146973501Y-77580264D01*
X146973489Y-77580261D01*
X146818845Y-77549500D01*
X146818842Y-77549500D01*
X146661158Y-77549500D01*
X146661155Y-77549500D01*
X146506510Y-77580261D01*
X146506498Y-77580264D01*
X146360827Y-77640602D01*
X146360814Y-77640609D01*
X146229711Y-77728210D01*
X146229707Y-77728213D01*
X146118213Y-77839707D01*
X146118210Y-77839711D01*
X146030609Y-77970814D01*
X146030602Y-77970827D01*
X145970264Y-78116498D01*
X145970261Y-78116510D01*
X145939500Y-78271153D01*
X145939500Y-78428846D01*
X145970261Y-78583489D01*
X145970264Y-78583501D01*
X146030602Y-78729172D01*
X146030609Y-78729185D01*
X146118210Y-78860288D01*
X146118212Y-78860291D01*
X146138179Y-78880257D01*
X146171666Y-78941579D01*
X146174500Y-78967940D01*
X146174500Y-80093770D01*
X146154815Y-80160809D01*
X146102011Y-80206564D01*
X146032853Y-80216508D01*
X145969297Y-80187483D01*
X145962819Y-80181451D01*
X145868419Y-80087051D01*
X145868415Y-80087048D01*
X145745501Y-80004919D01*
X145745488Y-80004912D01*
X145608917Y-79948343D01*
X145608907Y-79948340D01*
X145462687Y-79919254D01*
X145400776Y-79886868D01*
X145399198Y-79885318D01*
X144623367Y-79109487D01*
X144623361Y-79109482D01*
X144509941Y-79043999D01*
X144461725Y-78993432D01*
X144450525Y-78961794D01*
X144446084Y-78940382D01*
X144439130Y-78906861D01*
X144439128Y-78906850D01*
X144415865Y-78827785D01*
X144360632Y-78729172D01*
X144345554Y-78702251D01*
X144345553Y-78702250D01*
X144313880Y-78660876D01*
X144301957Y-78629933D01*
X144289122Y-78599394D01*
X144289301Y-78597088D01*
X144288759Y-78595679D01*
X144290199Y-78564117D01*
X144295476Y-78533976D01*
X144295662Y-78533597D01*
X144298053Y-78522494D01*
X144305146Y-78496689D01*
X144305146Y-78496686D01*
X144308010Y-78456878D01*
X144309131Y-78446927D01*
X144314509Y-78411954D01*
X144315184Y-78360190D01*
X144315462Y-78353621D01*
X144315464Y-78349006D01*
X144315372Y-78345817D01*
X144315391Y-78344338D01*
X144309751Y-78262175D01*
X144308544Y-78258173D01*
X144308543Y-78258168D01*
X144288756Y-78192575D01*
X144268239Y-78124564D01*
X144263777Y-78114979D01*
X144263770Y-78114962D01*
X144249320Y-78083915D01*
X144249319Y-78083913D01*
X144249303Y-78083879D01*
X144183001Y-77941306D01*
X144155279Y-77889740D01*
X143979182Y-77603311D01*
X143979178Y-77603305D01*
X143945824Y-77555480D01*
X143737857Y-77291219D01*
X143699223Y-77247568D01*
X143462199Y-77009054D01*
X143462196Y-77009052D01*
X143418783Y-76970138D01*
X143155841Y-76760528D01*
X143108223Y-76726873D01*
X143108215Y-76726868D01*
X142822887Y-76548975D01*
X142771701Y-76521029D01*
X142467773Y-76377208D01*
X142467757Y-76377201D01*
X142413728Y-76355356D01*
X142413709Y-76355349D01*
X142095214Y-76247511D01*
X142095203Y-76247508D01*
X142039010Y-76232034D01*
X142038990Y-76232029D01*
X141710185Y-76161619D01*
X141652574Y-76152724D01*
X141317829Y-76120680D01*
X141317812Y-76120679D01*
X141259569Y-76118485D01*
X140923386Y-76125236D01*
X140865243Y-76129771D01*
X140865241Y-76129772D01*
X140532085Y-76175224D01*
X140474869Y-76186427D01*
X140474853Y-76186431D01*
X140149134Y-76269987D01*
X140093610Y-76287703D01*
X139779687Y-76408246D01*
X139779664Y-76408255D01*
X139726573Y-76432244D01*
X139726526Y-76432267D01*
X139428643Y-76588161D01*
X139428630Y-76588168D01*
X139378619Y-76618140D01*
X139378603Y-76618151D01*
X139100660Y-76807347D01*
X139100643Y-76807360D01*
X139054440Y-76842878D01*
X139054432Y-76842884D01*
X138800108Y-77062891D01*
X138758307Y-77103499D01*
X138758277Y-77103529D01*
X138531043Y-77351342D01*
X138531023Y-77351366D01*
X138494185Y-77396517D01*
X138494166Y-77396541D01*
X138296990Y-77668920D01*
X138265591Y-77718033D01*
X138265590Y-77718036D01*
X138103953Y-78006275D01*
X138103954Y-78006276D01*
X138101119Y-78011330D01*
X138075585Y-78063749D01*
X138075581Y-78063756D01*
X137946013Y-78374046D01*
X137926695Y-78429044D01*
X137926689Y-78429063D01*
X137862799Y-78651212D01*
X137862800Y-78651213D01*
X137833753Y-78752214D01*
X137820902Y-78809068D01*
X137820896Y-78809101D01*
X137765827Y-79140782D01*
X137759611Y-79198766D01*
X137748487Y-79425542D01*
X137743136Y-79534621D01*
X137743135Y-79534638D01*
X137743645Y-79592914D01*
X137743645Y-79592926D01*
X137765992Y-79928450D01*
X137773222Y-79986323D01*
X137834085Y-80316993D01*
X137834096Y-80317041D01*
X137847932Y-80373635D01*
X137847938Y-80373657D01*
X137946512Y-80695125D01*
X137946516Y-80695135D01*
X137966788Y-80749774D01*
X138101774Y-81057776D01*
X138128219Y-81109733D01*
X138128228Y-81109750D01*
X138134796Y-81120997D01*
X138134797Y-81120997D01*
X138297799Y-81400113D01*
X138297800Y-81400115D01*
X138330056Y-81448674D01*
X138531971Y-81717568D01*
X138569617Y-81762096D01*
X138801171Y-82005916D01*
X138801183Y-82005928D01*
X138843689Y-82045800D01*
X139101826Y-82261328D01*
X139148648Y-82296037D01*
X139148656Y-82296043D01*
X139429877Y-82480356D01*
X139480429Y-82509463D01*
X139781022Y-82660137D01*
X139834572Y-82683212D01*
X139834602Y-82683224D01*
X140150541Y-82798240D01*
X140206397Y-82814993D01*
X140533518Y-82892836D01*
X140590934Y-82903038D01*
X140590929Y-82903038D01*
X140924843Y-82942658D01*
X140924852Y-82942659D01*
X140983038Y-82946174D01*
X141319322Y-82947043D01*
X141377502Y-82943830D01*
X141377512Y-82943829D01*
X141711629Y-82905936D01*
X141711659Y-82905932D01*
X141769095Y-82896033D01*
X141769099Y-82896032D01*
X142096600Y-82819887D01*
X142152566Y-82803417D01*
X142469110Y-82690031D01*
X142522777Y-82667232D01*
X142522781Y-82667230D01*
X142824161Y-82518108D01*
X142824174Y-82518100D01*
X142874835Y-82489279D01*
X142874843Y-82489275D01*
X143157018Y-82306415D01*
X143157049Y-82306394D01*
X143204041Y-82271935D01*
X143204043Y-82271933D01*
X143463258Y-82057772D01*
X143463262Y-82057769D01*
X143506005Y-82018088D01*
X143506009Y-82018085D01*
X143738819Y-81775467D01*
X143738828Y-81775457D01*
X143776691Y-81731141D01*
X143979992Y-81463299D01*
X143980016Y-81463266D01*
X144012508Y-81414895D01*
X144183592Y-81125388D01*
X144210394Y-81073367D01*
X144268974Y-80941413D01*
X144268979Y-80941401D01*
X144282944Y-80909953D01*
X144282947Y-80909949D01*
X144282967Y-80909903D01*
X144292422Y-80888635D01*
X144319620Y-80810911D01*
X144329010Y-80727587D01*
X144334953Y-80713442D01*
X144336048Y-80698138D01*
X144348213Y-80681887D01*
X144356077Y-80663174D01*
X144368725Y-80654487D01*
X144377920Y-80642205D01*
X144396937Y-80635111D01*
X144413672Y-80623619D01*
X144429008Y-80623149D01*
X144443384Y-80617788D01*
X144463218Y-80622102D01*
X144483509Y-80621482D01*
X144497679Y-80629599D01*
X144511657Y-80632640D01*
X144539911Y-80653791D01*
X144615251Y-80729131D01*
X144648736Y-80790454D01*
X144649187Y-80792620D01*
X144668340Y-80888907D01*
X144668342Y-80888915D01*
X144724911Y-81025485D01*
X144724919Y-81025501D01*
X144807048Y-81148415D01*
X144807051Y-81148419D01*
X144911580Y-81252948D01*
X144911584Y-81252951D01*
X145034498Y-81335080D01*
X145034511Y-81335087D01*
X145167183Y-81390041D01*
X145171087Y-81391658D01*
X145171091Y-81391658D01*
X145171092Y-81391659D01*
X145316079Y-81420500D01*
X145316082Y-81420500D01*
X145463920Y-81420500D01*
X145566408Y-81400113D01*
X145608913Y-81391658D01*
X145745495Y-81335084D01*
X145868416Y-81252951D01*
X145912107Y-81209260D01*
X145962819Y-81158549D01*
X146024142Y-81125064D01*
X146093834Y-81130048D01*
X146149767Y-81171920D01*
X146174184Y-81237384D01*
X146174500Y-81246230D01*
X146174500Y-81305766D01*
X146193126Y-81375281D01*
X146213719Y-81452136D01*
X146246144Y-81508296D01*
X146289485Y-81583365D01*
X148199485Y-83493365D01*
X148306635Y-83600515D01*
X148437865Y-83676281D01*
X148584234Y-83715500D01*
X152810258Y-83715500D01*
X152877297Y-83735185D01*
X152897939Y-83751819D01*
X154748181Y-85602061D01*
X154781666Y-85663384D01*
X154784500Y-85689742D01*
X154784500Y-91284234D01*
X154784500Y-91435766D01*
X154798262Y-91487128D01*
X154823719Y-91582136D01*
X154857355Y-91640394D01*
X154899485Y-91713365D01*
X154899487Y-91713367D01*
X155483441Y-92297321D01*
X155516926Y-92358644D01*
X155517377Y-92360810D01*
X155542108Y-92485139D01*
X155542111Y-92485149D01*
X155598680Y-92621720D01*
X155598687Y-92621733D01*
X155680816Y-92744647D01*
X155680819Y-92744651D01*
X155785348Y-92849180D01*
X155785352Y-92849183D01*
X155908266Y-92931312D01*
X155908279Y-92931319D01*
X156044850Y-92987888D01*
X156044855Y-92987890D01*
X156044859Y-92987890D01*
X156044860Y-92987891D01*
X156189847Y-93016732D01*
X156189850Y-93016732D01*
X156337688Y-93016732D01*
X156435230Y-92997328D01*
X156482681Y-92987890D01*
X156619263Y-92931316D01*
X156742184Y-92849183D01*
X156846719Y-92744648D01*
X156928852Y-92621727D01*
X156985426Y-92485145D01*
X156998223Y-92420814D01*
X157014268Y-92340152D01*
X157014268Y-92192311D01*
X156985427Y-92047324D01*
X156985426Y-92047323D01*
X156985426Y-92047319D01*
X156985143Y-92046635D01*
X156928855Y-91910743D01*
X156928848Y-91910730D01*
X156846719Y-91787816D01*
X156846716Y-91787812D01*
X156742187Y-91683283D01*
X156742183Y-91683280D01*
X156619269Y-91601151D01*
X156619256Y-91601144D01*
X156482685Y-91544575D01*
X156482676Y-91544573D01*
X156364496Y-91521064D01*
X156302586Y-91488678D01*
X156301008Y-91487128D01*
X155971819Y-91157939D01*
X155938334Y-91096616D01*
X155935500Y-91070258D01*
X155935500Y-90694778D01*
X155941435Y-90674562D01*
X155942564Y-90653524D01*
X155951082Y-90641710D01*
X155955185Y-90627739D01*
X155971104Y-90613944D01*
X155983430Y-90596852D01*
X155996985Y-90591518D01*
X156007989Y-90581984D01*
X156028840Y-90578985D01*
X156048449Y-90571271D01*
X156073246Y-90572600D01*
X156077147Y-90572040D01*
X156083687Y-90573160D01*
X156099831Y-90576371D01*
X156103710Y-90577143D01*
X156165621Y-90609528D01*
X156167199Y-90611079D01*
X158596635Y-93040515D01*
X158727865Y-93116281D01*
X158874234Y-93155500D01*
X158874236Y-93155500D01*
X172855764Y-93155500D01*
X172855766Y-93155500D01*
X173002135Y-93116281D01*
X173133365Y-93040515D01*
X173494099Y-92679779D01*
X173555420Y-92646296D01*
X173557452Y-92645872D01*
X173628913Y-92631658D01*
X173765495Y-92575084D01*
X173888416Y-92492951D01*
X173992951Y-92388416D01*
X174075084Y-92265495D01*
X174131658Y-92128913D01*
X174142986Y-92071967D01*
X174160500Y-91983920D01*
X174160500Y-91836079D01*
X174131659Y-91691092D01*
X174131658Y-91691091D01*
X174131658Y-91691087D01*
X174130871Y-91689188D01*
X174075087Y-91554511D01*
X174075080Y-91554498D01*
X173989567Y-91426519D01*
X173991014Y-91425551D01*
X173966935Y-91368853D01*
X173978728Y-91299986D01*
X174025881Y-91248426D01*
X174090102Y-91230500D01*
X177223000Y-91230500D01*
X177231662Y-91232499D01*
X177288759Y-91230500D01*
X177345892Y-91230500D01*
X177345892Y-91230499D01*
X177353949Y-91229439D01*
X177354007Y-91229884D01*
X177368552Y-91227706D01*
X177370194Y-91227648D01*
X177392079Y-91228813D01*
X177396945Y-91229507D01*
X177397615Y-91229644D01*
X177400781Y-91230061D01*
X177400812Y-91230065D01*
X177404105Y-91230499D01*
X177404108Y-91230500D01*
X177466637Y-91230500D01*
X177467976Y-91230507D01*
X177530485Y-91231182D01*
X177530485Y-91231181D01*
X177531983Y-91231198D01*
X177543593Y-91230500D01*
X178055500Y-91230500D01*
X178122539Y-91250185D01*
X178168294Y-91302989D01*
X178179500Y-91354500D01*
X178179500Y-95655500D01*
X178159815Y-95722539D01*
X178107011Y-95768294D01*
X178055500Y-95779500D01*
X177533145Y-95779500D01*
X177530485Y-95778818D01*
X177467328Y-95779500D01*
X177403895Y-95779500D01*
X177402114Y-95779754D01*
X177400784Y-95779937D01*
X177397656Y-95780348D01*
X177396972Y-95780488D01*
X177392087Y-95781185D01*
X177370197Y-95782351D01*
X177368554Y-95782293D01*
X177354006Y-95780118D01*
X177353948Y-95780560D01*
X177345893Y-95779500D01*
X177345892Y-95779500D01*
X177288759Y-95779500D01*
X177231662Y-95777501D01*
X177223000Y-95779500D01*
X174018676Y-95779500D01*
X173951637Y-95759815D01*
X173930995Y-95743181D01*
X173057316Y-94869502D01*
X173057314Y-94869500D01*
X172980129Y-94824937D01*
X172943187Y-94803608D01*
X172858553Y-94780931D01*
X172815892Y-94769500D01*
X172815891Y-94769500D01*
X160751424Y-94769500D01*
X160722767Y-94766468D01*
X160703538Y-94769500D01*
X160674108Y-94769500D01*
X160674102Y-94769500D01*
X160637783Y-94779232D01*
X160624967Y-94781950D01*
X160587928Y-94787778D01*
X160587918Y-94787781D01*
X160455671Y-94837319D01*
X160336033Y-94912399D01*
X160233903Y-95009950D01*
X160233900Y-95009953D01*
X160233899Y-95009955D01*
X160216478Y-95035079D01*
X160153415Y-95126022D01*
X160097861Y-95255871D01*
X160097861Y-95255873D01*
X160079289Y-95346442D01*
X160079274Y-95346518D01*
X160078309Y-95351229D01*
X160069500Y-95384108D01*
X160069500Y-95394195D01*
X160069492Y-95394235D01*
X160069492Y-95399434D01*
X160069492Y-95399438D01*
X160069500Y-95464853D01*
X160069500Y-95464895D01*
X160069484Y-95538770D01*
X160069500Y-95539013D01*
X160069500Y-96776159D01*
X160049815Y-96843198D01*
X159997011Y-96888953D01*
X159945779Y-96900159D01*
X156134779Y-96908722D01*
X156067695Y-96889188D01*
X156021822Y-96836487D01*
X156010500Y-96784722D01*
X156010500Y-95037313D01*
X156014698Y-94998969D01*
X156010500Y-94971700D01*
X156010500Y-94934108D01*
X155996896Y-94883340D01*
X155994646Y-94868719D01*
X155990384Y-94859034D01*
X155976392Y-94806814D01*
X155976390Y-94806811D01*
X155976390Y-94806809D01*
X155976389Y-94806808D01*
X155942173Y-94747545D01*
X155942172Y-94747543D01*
X155938765Y-94741643D01*
X155931937Y-94726097D01*
X155914715Y-94699986D01*
X155912862Y-94696776D01*
X155912858Y-94696770D01*
X155910503Y-94692690D01*
X155908938Y-94690651D01*
X155903800Y-94683434D01*
X155832938Y-94575993D01*
X155832934Y-94575988D01*
X155710161Y-94444611D01*
X155682078Y-94423229D01*
X155567099Y-94335685D01*
X155567090Y-94335679D01*
X155466114Y-94282823D01*
X155407785Y-94252290D01*
X155350772Y-94233791D01*
X155236749Y-94196795D01*
X155236739Y-94196793D01*
X155102997Y-94177230D01*
X155088855Y-94174312D01*
X155070897Y-94169500D01*
X155070892Y-94169500D01*
X148885892Y-94169500D01*
X148637326Y-94169500D01*
X148630447Y-94169309D01*
X148491798Y-94161606D01*
X148482290Y-94160709D01*
X148461318Y-94157912D01*
X148369182Y-94145627D01*
X148364023Y-94144828D01*
X148219096Y-94119253D01*
X148214304Y-94118310D01*
X148060916Y-94084965D01*
X148045790Y-94080656D01*
X147835684Y-94006102D01*
X147806569Y-93991193D01*
X147741095Y-93945865D01*
X147716161Y-93922987D01*
X147449183Y-93600499D01*
X146851748Y-92878844D01*
X146731082Y-92733089D01*
X146716490Y-92711043D01*
X146683646Y-92647620D01*
X146680232Y-92640474D01*
X146672004Y-92621733D01*
X146583800Y-92420821D01*
X146537863Y-92316187D01*
X146537863Y-92316188D01*
X146533066Y-92305261D01*
X146532357Y-92301092D01*
X146506615Y-92245011D01*
X146481792Y-92188470D01*
X146481790Y-92188467D01*
X146480797Y-92186828D01*
X146474167Y-92174321D01*
X146415871Y-92047319D01*
X146235781Y-91654982D01*
X146231862Y-91645405D01*
X146006705Y-91021895D01*
X145987000Y-90967326D01*
X145984721Y-90960380D01*
X145880047Y-90606481D01*
X145786315Y-90289579D01*
X145784098Y-90280951D01*
X145780299Y-90263607D01*
X145757968Y-90161663D01*
X145756361Y-90152786D01*
X145601501Y-89074015D01*
X145557629Y-88768396D01*
X145554891Y-88749322D01*
X146772956Y-88749322D01*
X146776169Y-88807502D01*
X146776170Y-88807512D01*
X146801967Y-89034973D01*
X146814063Y-89141629D01*
X146814068Y-89141666D01*
X146823258Y-89194989D01*
X146823259Y-89194989D01*
X146823969Y-89199109D01*
X146900113Y-89526603D01*
X146916582Y-89582566D01*
X147029968Y-89899110D01*
X147052767Y-89952777D01*
X147052769Y-89952781D01*
X147201891Y-90254161D01*
X147201899Y-90254174D01*
X147230720Y-90304835D01*
X147230724Y-90304843D01*
X147413584Y-90587018D01*
X147413605Y-90587049D01*
X147448064Y-90634041D01*
X147448066Y-90634043D01*
X147662227Y-90893258D01*
X147662230Y-90893262D01*
X147701911Y-90936005D01*
X147701914Y-90936009D01*
X147944532Y-91168819D01*
X147944542Y-91168828D01*
X147988858Y-91206691D01*
X148256700Y-91409992D01*
X148256733Y-91410016D01*
X148305104Y-91442508D01*
X148594611Y-91613592D01*
X148646632Y-91640394D01*
X148778583Y-91698972D01*
X148778600Y-91698980D01*
X148810069Y-91712956D01*
X148810106Y-91712972D01*
X148831372Y-91722425D01*
X148909088Y-91749620D01*
X149051918Y-91765715D01*
X149075279Y-91765001D01*
X149075289Y-91765001D01*
X149120511Y-91763619D01*
X149121870Y-91763531D01*
X149151704Y-91761853D01*
X149157733Y-91760915D01*
X149157944Y-91762271D01*
X149220798Y-91764327D01*
X149253997Y-91781147D01*
X149287106Y-91804764D01*
X149357873Y-91846991D01*
X149357875Y-91846991D01*
X149357876Y-91846992D01*
X149494728Y-91891373D01*
X149494733Y-91891374D01*
X149494736Y-91891375D01*
X149528474Y-91897194D01*
X149528481Y-91897195D01*
X149660256Y-91919921D01*
X149698895Y-91924731D01*
X149707288Y-91925777D01*
X149707293Y-91925777D01*
X149707298Y-91925778D01*
X149883275Y-91939349D01*
X149948602Y-91964130D01*
X149961421Y-91975301D01*
X150407514Y-92421394D01*
X150440999Y-92482717D01*
X150436015Y-92552409D01*
X150434398Y-92556519D01*
X150430263Y-92566503D01*
X150430260Y-92566511D01*
X150399500Y-92721153D01*
X150399500Y-92878846D01*
X150430261Y-93033489D01*
X150430264Y-93033501D01*
X150490602Y-93179172D01*
X150490609Y-93179185D01*
X150578210Y-93310288D01*
X150578213Y-93310292D01*
X150689707Y-93421786D01*
X150689711Y-93421789D01*
X150820814Y-93509390D01*
X150820827Y-93509397D01*
X150966498Y-93569735D01*
X150966503Y-93569737D01*
X151121153Y-93600499D01*
X151121156Y-93600500D01*
X151121158Y-93600500D01*
X151278844Y-93600500D01*
X151278845Y-93600499D01*
X151433497Y-93569737D01*
X151579179Y-93509394D01*
X151710289Y-93421789D01*
X151821789Y-93310289D01*
X151909394Y-93179179D01*
X151969737Y-93033497D01*
X152000500Y-92878842D01*
X152000500Y-92721158D01*
X152000500Y-92721155D01*
X152000499Y-92721153D01*
X151998487Y-92711038D01*
X151969737Y-92566503D01*
X151939270Y-92492948D01*
X151909397Y-92420827D01*
X151909390Y-92420814D01*
X151821789Y-92289711D01*
X151821786Y-92289707D01*
X151769415Y-92237336D01*
X151739407Y-92185362D01*
X151739389Y-92185370D01*
X151739330Y-92185228D01*
X151737322Y-92181750D01*
X151737237Y-92181435D01*
X151736281Y-92177865D01*
X151660515Y-92046635D01*
X151553365Y-91939485D01*
X151524322Y-91910442D01*
X151524114Y-91910062D01*
X151523734Y-91909851D01*
X151507344Y-91879349D01*
X151490837Y-91849119D01*
X151490867Y-91848687D01*
X151490662Y-91848304D01*
X151493359Y-91813839D01*
X151495821Y-91779427D01*
X151496081Y-91779079D01*
X151496115Y-91778647D01*
X151516985Y-91751155D01*
X151537693Y-91723494D01*
X151538188Y-91723225D01*
X151538362Y-91722997D01*
X151541668Y-91721340D01*
X151569451Y-91706291D01*
X151614803Y-91689722D01*
X151614976Y-91689710D01*
X151616239Y-91689188D01*
X151632939Y-91680836D01*
X151636119Y-91679302D01*
X151778700Y-91612997D01*
X151830259Y-91585279D01*
X152116688Y-91409182D01*
X152116694Y-91409178D01*
X152164519Y-91375824D01*
X152428780Y-91167857D01*
X152472431Y-91129223D01*
X152710945Y-90892199D01*
X152710947Y-90892196D01*
X152749861Y-90848783D01*
X152959471Y-90585841D01*
X152993126Y-90538223D01*
X152993131Y-90538215D01*
X153171024Y-90252887D01*
X153198970Y-90201701D01*
X153342791Y-89897773D01*
X153342798Y-89897757D01*
X153364643Y-89843728D01*
X153364650Y-89843709D01*
X153472488Y-89525214D01*
X153472491Y-89525203D01*
X153487965Y-89469010D01*
X153487970Y-89468990D01*
X153558380Y-89140187D01*
X153558380Y-89140183D01*
X153567275Y-89082574D01*
X153599319Y-88747829D01*
X153599320Y-88747812D01*
X153601514Y-88689569D01*
X153594763Y-88353386D01*
X153590228Y-88295243D01*
X153590227Y-88295241D01*
X153544775Y-87962085D01*
X153533572Y-87904869D01*
X153533568Y-87904853D01*
X153450012Y-87579134D01*
X153432296Y-87523610D01*
X153311753Y-87209687D01*
X153311744Y-87209664D01*
X153287755Y-87156573D01*
X153287732Y-87156526D01*
X153131838Y-86858643D01*
X153131831Y-86858630D01*
X153101859Y-86808619D01*
X153101848Y-86808603D01*
X152912652Y-86530660D01*
X152912639Y-86530643D01*
X152877121Y-86484440D01*
X152877115Y-86484432D01*
X152657108Y-86230108D01*
X152616500Y-86188307D01*
X152616470Y-86188277D01*
X152368657Y-85961043D01*
X152368633Y-85961023D01*
X152323482Y-85924185D01*
X152323458Y-85924166D01*
X152051079Y-85726990D01*
X152001968Y-85695593D01*
X152001936Y-85695573D01*
X151708674Y-85531122D01*
X151656250Y-85505585D01*
X151656243Y-85505581D01*
X151345953Y-85376013D01*
X151290961Y-85356697D01*
X150967781Y-85263752D01*
X150910931Y-85250902D01*
X150910898Y-85250896D01*
X150579217Y-85195827D01*
X150521233Y-85189611D01*
X150185376Y-85173136D01*
X150185361Y-85173135D01*
X150127085Y-85173645D01*
X150127073Y-85173645D01*
X149791549Y-85195992D01*
X149733676Y-85203222D01*
X149403006Y-85264085D01*
X149402958Y-85264096D01*
X149346364Y-85277932D01*
X149346342Y-85277938D01*
X149024874Y-85376512D01*
X149024864Y-85376516D01*
X148970225Y-85396788D01*
X148662229Y-85531771D01*
X148610266Y-85558219D01*
X148319886Y-85727799D01*
X148319884Y-85727800D01*
X148271325Y-85760056D01*
X148002431Y-85961971D01*
X147957903Y-85999617D01*
X147714083Y-86231171D01*
X147714071Y-86231183D01*
X147674191Y-86273697D01*
X147674189Y-86273700D01*
X147458686Y-86531806D01*
X147458668Y-86531830D01*
X147451883Y-86540984D01*
X147451882Y-86540986D01*
X147423964Y-86578647D01*
X147423948Y-86578669D01*
X147239643Y-86859877D01*
X147210536Y-86910429D01*
X147059862Y-87211022D01*
X147036787Y-87264572D01*
X147036775Y-87264602D01*
X146921759Y-87580541D01*
X146905006Y-87636397D01*
X146827160Y-87963532D01*
X146823348Y-87984993D01*
X146823347Y-87984995D01*
X146822504Y-87989740D01*
X146822503Y-87989747D01*
X146816963Y-88020919D01*
X146816961Y-88020928D01*
X146777341Y-88354843D01*
X146777340Y-88354852D01*
X146773825Y-88413038D01*
X146772956Y-88749322D01*
X145554891Y-88749322D01*
X145541758Y-88657839D01*
X145540500Y-88640219D01*
X145540500Y-85717956D01*
X145540530Y-85715217D01*
X145540962Y-85695653D01*
X145542268Y-85636578D01*
X145518112Y-85469231D01*
X145466713Y-85308151D01*
X145416123Y-85209635D01*
X145389478Y-85157747D01*
X145389470Y-85157735D01*
X145306761Y-85046632D01*
X145288510Y-85022115D01*
X145166577Y-84904978D01*
X145166575Y-84904976D01*
X145027009Y-84809533D01*
X145027004Y-84809530D01*
X144873623Y-84738390D01*
X144873615Y-84738388D01*
X144832462Y-84727049D01*
X144832450Y-84727041D01*
X144728597Y-84698437D01*
X144596812Y-84697519D01*
X144588753Y-84698524D01*
X144588630Y-84697537D01*
X144573327Y-84699500D01*
X139751343Y-84699500D01*
X139712132Y-84693137D01*
X139566391Y-84644556D01*
X139423302Y-84596860D01*
X139398718Y-84585552D01*
X138964571Y-84325064D01*
X138961796Y-84323349D01*
X138476541Y-84014551D01*
X138455432Y-83997618D01*
X137615521Y-83157707D01*
X137611034Y-83152978D01*
X137208503Y-82705722D01*
X137195519Y-82688490D01*
X137182233Y-82667232D01*
X136740144Y-81959891D01*
X136734391Y-81949631D01*
X136715839Y-81912525D01*
X136513715Y-81508279D01*
X136508097Y-81495216D01*
X136325732Y-80993717D01*
X136323753Y-80987817D01*
X136148811Y-80419253D01*
X136143693Y-80392297D01*
X136142257Y-80373635D01*
X136093972Y-79745915D01*
X136093164Y-79742079D01*
X136090500Y-79716513D01*
X136090500Y-76791364D01*
X136092368Y-76769922D01*
X136094017Y-76760528D01*
X136104355Y-76701647D01*
X136092772Y-76570372D01*
X136047608Y-76446569D01*
X135998514Y-76376567D01*
X135990500Y-76362686D01*
X135984738Y-76356924D01*
X135971939Y-76338674D01*
X135942510Y-76314017D01*
X135934464Y-76306650D01*
X135897315Y-76269500D01*
X135881135Y-76260158D01*
X135863505Y-76247823D01*
X129690234Y-71075624D01*
X129671589Y-71056186D01*
X129641417Y-71016961D01*
X129632476Y-71003633D01*
X129594896Y-70938912D01*
X129474597Y-70731731D01*
X129473958Y-70730615D01*
X129359212Y-70527604D01*
X129354283Y-70517910D01*
X129311159Y-70423038D01*
X129284045Y-70363386D01*
X129222277Y-70227496D01*
X129219791Y-70221634D01*
X129216534Y-70213367D01*
X129099363Y-69915933D01*
X129097958Y-69912190D01*
X129083903Y-69872836D01*
X129056009Y-69794733D01*
X129054275Y-69789512D01*
X129039319Y-69740906D01*
X129034151Y-69713280D01*
X129030042Y-69655753D01*
X129029806Y-69651284D01*
X129025018Y-69512441D01*
X129042380Y-69444766D01*
X129093576Y-69397219D01*
X129162351Y-69384898D01*
X129226869Y-69411715D01*
X129266647Y-69469157D01*
X129269396Y-69478719D01*
X129277938Y-69513658D01*
X129376512Y-69835125D01*
X129376516Y-69835135D01*
X129396788Y-69889774D01*
X129531774Y-70197776D01*
X129558219Y-70249733D01*
X129558228Y-70249750D01*
X129564796Y-70260997D01*
X129564797Y-70260997D01*
X129727799Y-70540113D01*
X129727800Y-70540115D01*
X129760056Y-70588674D01*
X129961971Y-70857568D01*
X129999617Y-70902096D01*
X130231171Y-71145916D01*
X130231183Y-71145928D01*
X130273689Y-71185800D01*
X130531826Y-71401328D01*
X130578648Y-71436037D01*
X130578656Y-71436043D01*
X130859877Y-71620356D01*
X130910429Y-71649463D01*
X131211022Y-71800137D01*
X131264572Y-71823212D01*
X131264602Y-71823224D01*
X131580541Y-71938240D01*
X131636397Y-71954993D01*
X131963518Y-72032836D01*
X132020934Y-72043038D01*
X132020929Y-72043038D01*
X132354843Y-72082658D01*
X132354852Y-72082659D01*
X132413038Y-72086174D01*
X132749322Y-72087043D01*
X132807502Y-72083830D01*
X132807512Y-72083829D01*
X133141629Y-72045936D01*
X133141659Y-72045932D01*
X133199095Y-72036033D01*
X133199099Y-72036032D01*
X133526600Y-71959887D01*
X133582566Y-71943417D01*
X133899110Y-71830031D01*
X133952777Y-71807232D01*
X133952781Y-71807230D01*
X134254161Y-71658108D01*
X134254174Y-71658100D01*
X134304839Y-71629278D01*
X134304843Y-71629275D01*
X134587018Y-71446415D01*
X134587049Y-71446394D01*
X134634041Y-71411935D01*
X134634043Y-71411933D01*
X134893258Y-71197772D01*
X134893262Y-71197769D01*
X134936005Y-71158088D01*
X134936009Y-71158085D01*
X135168819Y-70915467D01*
X135168828Y-70915457D01*
X135206691Y-70871141D01*
X135409992Y-70603299D01*
X135410016Y-70603266D01*
X135442508Y-70554895D01*
X135613592Y-70265388D01*
X135640394Y-70213367D01*
X135698974Y-70081413D01*
X135698979Y-70081401D01*
X135712944Y-70049953D01*
X135712947Y-70049949D01*
X135712967Y-70049903D01*
X135722425Y-70028629D01*
X135722426Y-70028626D01*
X135733021Y-69998349D01*
X135773743Y-69941573D01*
X135838696Y-69915826D01*
X135907257Y-69929283D01*
X135937743Y-69951623D01*
X136363181Y-70377061D01*
X136396666Y-70438384D01*
X136399500Y-70464742D01*
X136399500Y-70478846D01*
X136430261Y-70633489D01*
X136430264Y-70633501D01*
X136490602Y-70779172D01*
X136490609Y-70779185D01*
X136578210Y-70910288D01*
X136578213Y-70910292D01*
X136689707Y-71021786D01*
X136689711Y-71021789D01*
X136820814Y-71109390D01*
X136820827Y-71109397D01*
X136966498Y-71169735D01*
X136966503Y-71169737D01*
X137107444Y-71197772D01*
X137121153Y-71200499D01*
X137121156Y-71200500D01*
X137121158Y-71200500D01*
X137278844Y-71200500D01*
X137278845Y-71200499D01*
X137433497Y-71169737D01*
X137579179Y-71109394D01*
X137710289Y-71021789D01*
X137821789Y-70910289D01*
X137909394Y-70779179D01*
X137969737Y-70633497D01*
X138000500Y-70478842D01*
X138000500Y-70321158D01*
X138000500Y-70321155D01*
X138000499Y-70321153D01*
X137989512Y-70265919D01*
X137969737Y-70166503D01*
X137948843Y-70116060D01*
X137909397Y-70020827D01*
X137909390Y-70020814D01*
X137821789Y-69889711D01*
X137821786Y-69889707D01*
X137710292Y-69778213D01*
X137710288Y-69778210D01*
X137579185Y-69690609D01*
X137579172Y-69690602D01*
X137433501Y-69630264D01*
X137433489Y-69630261D01*
X137278845Y-69599500D01*
X137278842Y-69599500D01*
X137264742Y-69599500D01*
X137197703Y-69579815D01*
X137177061Y-69563181D01*
X135946274Y-68332394D01*
X135916080Y-68277098D01*
X137977426Y-68277098D01*
X137977426Y-68522901D01*
X138012007Y-68741233D01*
X138015876Y-68765661D01*
X138091830Y-68999422D01*
X138203416Y-69218424D01*
X138347889Y-69417273D01*
X138521690Y-69591074D01*
X138720539Y-69735547D01*
X138939541Y-69847133D01*
X139173302Y-69923087D01*
X139264338Y-69937505D01*
X139416062Y-69961537D01*
X139416067Y-69961537D01*
X139661864Y-69961537D01*
X139796728Y-69940175D01*
X139904624Y-69923087D01*
X140138385Y-69847133D01*
X140357387Y-69735547D01*
X140556236Y-69591074D01*
X140730037Y-69417273D01*
X140874510Y-69218424D01*
X140986096Y-68999422D01*
X141062050Y-68765661D01*
X141079138Y-68657765D01*
X141100500Y-68522901D01*
X141100500Y-68277098D01*
X141071596Y-68094610D01*
X141062050Y-68034339D01*
X140986096Y-67800578D01*
X140874510Y-67581576D01*
X140730037Y-67382727D01*
X140556236Y-67208926D01*
X140357387Y-67064453D01*
X140267848Y-67018831D01*
X140138387Y-66952868D01*
X140138386Y-66952867D01*
X140138385Y-66952867D01*
X139904624Y-66876913D01*
X139904622Y-66876912D01*
X139904620Y-66876912D01*
X139661864Y-66838463D01*
X139661859Y-66838463D01*
X139416067Y-66838463D01*
X139416062Y-66838463D01*
X139173305Y-66876912D01*
X138939538Y-66952868D01*
X138720538Y-67064453D01*
X138670594Y-67100740D01*
X138521690Y-67208926D01*
X138521688Y-67208928D01*
X138521687Y-67208928D01*
X138347891Y-67382724D01*
X138347891Y-67382725D01*
X138347889Y-67382727D01*
X138302375Y-67445372D01*
X138203416Y-67581575D01*
X138091831Y-67800575D01*
X138015875Y-68034342D01*
X137977426Y-68277098D01*
X135916080Y-68277098D01*
X135912789Y-68271071D01*
X135910904Y-68259566D01*
X135910877Y-68259570D01*
X135910745Y-68258594D01*
X135910712Y-68258391D01*
X135910683Y-68258129D01*
X135903242Y-68211312D01*
X135876083Y-68080379D01*
X135876082Y-68080373D01*
X135869128Y-68046850D01*
X135845865Y-67967785D01*
X135779044Y-67848483D01*
X135775554Y-67842251D01*
X135775553Y-67842250D01*
X135743880Y-67800876D01*
X135731957Y-67769933D01*
X135719122Y-67739394D01*
X135719301Y-67737088D01*
X135718759Y-67735679D01*
X135720199Y-67704117D01*
X135725476Y-67673976D01*
X135725662Y-67673597D01*
X135728053Y-67662494D01*
X135735146Y-67636689D01*
X135735146Y-67636686D01*
X135738010Y-67596878D01*
X135739131Y-67586927D01*
X135744509Y-67551954D01*
X135745184Y-67500190D01*
X135745462Y-67493621D01*
X135745464Y-67489006D01*
X135745372Y-67485817D01*
X135745391Y-67484338D01*
X135739751Y-67402175D01*
X135738544Y-67398173D01*
X135738543Y-67398168D01*
X135718756Y-67332575D01*
X135698239Y-67264564D01*
X135693777Y-67254979D01*
X135693770Y-67254962D01*
X135679320Y-67223915D01*
X135679319Y-67223913D01*
X135679303Y-67223879D01*
X135613001Y-67081306D01*
X135585279Y-67029740D01*
X135409182Y-66743311D01*
X135409178Y-66743305D01*
X135375824Y-66695480D01*
X135167857Y-66431219D01*
X135129223Y-66387568D01*
X134892199Y-66149054D01*
X134892196Y-66149052D01*
X134848783Y-66110138D01*
X134753513Y-66034191D01*
X134737401Y-66011245D01*
X134718748Y-65990319D01*
X134717597Y-65983041D01*
X134713362Y-65977010D01*
X134712213Y-65948996D01*
X134707835Y-65921307D01*
X134710801Y-65914561D01*
X134710500Y-65907199D01*
X134724677Y-65883012D01*
X134735965Y-65857350D01*
X134742107Y-65853279D01*
X134745834Y-65846922D01*
X134770839Y-65834239D01*
X134794207Y-65818755D01*
X134804617Y-65817108D01*
X134808148Y-65815318D01*
X134829049Y-65813243D01*
X134950585Y-65811537D01*
X134956239Y-65811588D01*
G37*
%TD.AperFunction*%
%TD*%
M02*
