M48
; DRILL file {KiCad 9.0.2} date 2025-07-05T18:08:34-0400
; FORMAT={-:-/ absolute / metric / decimal}
; #@! TF.CreationDate,2025-07-05T18:08:34-04:00
; #@! TF.GenerationSoftware,Kicad,Pcbnew,9.0.2
; #@! TF.FileFunction,Plated,1,2,PTH
FMAT,2
METRIC
; #@! TA.AperFunction,Plated,PTH,ViaDrill
T1C0.300
%
G90
G05
T1
X135.73Y-72.17
X137.2Y-70.4
X143.28Y-83.78
X145.39Y-80.67
X145.6Y-70.6
X146.74Y-78.35
X151.2Y-92.8
X151.3Y-74.7
X153.5Y-90.8
X154.9Y-79.6
X156.217Y-89.783
X156.264Y-92.266
X157.5Y-75.9
X157.97Y-95.87
X173.41Y-91.91
X173.81Y-93.725
X174.04Y-95.38
X174.54Y-91.781
X175.581Y-92.729
X175.73Y-94.76
M30
