%TF.GenerationSoftware,KiCad,Pcbnew,9.0.2*%
%TF.CreationDate,2025-07-03T16:06:07-04:00*%
%TF.ProjectId,SteamDeck_Action_Buttons_Replacement_Pad,53746561-6d44-4656-936b-5f416374696f,rev?*%
%TF.SameCoordinates,Original*%
%TF.FileFunction,Other,ECO1*%
%FSLAX46Y46*%
G04 Gerber Fmt 4.6, Leading zero omitted, Abs format (unit mm)*
G04 Created by KiCad (PCBNEW 9.0.2) date 2025-07-03 16:06:07*
%MOMM*%
%LPD*%
G01*
G04 APERTURE LIST*
%ADD10C,0.100000*%
G04 APERTURE END LIST*
D10*
X138291141Y-65745000D02*
X143890000Y-66520000D01*
X150115000Y-67370000D01*
X150790000Y-67420000D01*
X151915000Y-67420000D01*
X152390000Y-67445000D01*
X152860000Y-67650000D01*
X154040000Y-68445000D01*
X155000000Y-69220000D01*
X155560000Y-69770000D01*
X156100000Y-70290000D01*
X156340000Y-70600000D01*
X156430000Y-70810000D01*
X156540000Y-71030000D01*
X156530000Y-71710000D01*
X156515000Y-73845000D01*
X156665000Y-74020000D01*
X156842498Y-74070000D01*
X158590000Y-74070000D01*
X162530000Y-76020000D01*
X162490000Y-89870000D01*
X162390000Y-90020000D01*
X162240000Y-90120000D01*
X162040000Y-90170000D01*
X160215000Y-90170000D01*
X160040000Y-90195000D01*
X159840000Y-90270000D01*
X159665000Y-90420000D01*
X159565000Y-90570000D01*
X159515000Y-90720000D01*
X159440000Y-90995000D01*
X159540000Y-91345000D01*
X159715000Y-91570000D01*
X159815000Y-91670000D01*
X160040000Y-91770000D01*
X160315000Y-91795000D01*
X172740000Y-91795000D01*
X173740000Y-90795000D01*
X177330000Y-90790000D01*
X177370000Y-90460000D01*
X177420000Y-90790000D01*
X178620000Y-90790000D01*
X178620000Y-96214271D01*
X177415000Y-96220000D01*
X177340000Y-96520000D01*
X177290000Y-96220000D01*
X173791141Y-96214271D01*
X172741141Y-95189271D01*
X160616141Y-95189271D01*
X160491141Y-95514271D01*
X160491141Y-97014271D01*
X160441141Y-97214271D01*
X160291141Y-97314271D01*
X155716141Y-97314271D01*
X155591141Y-97114271D01*
X155591141Y-94964271D01*
X155491141Y-94839271D01*
X155466141Y-94814271D01*
X155366141Y-94714271D01*
X155116141Y-94614271D01*
X148515000Y-94595000D01*
X148040000Y-94495000D01*
X147690000Y-94370000D01*
X147415000Y-94245000D01*
X146940000Y-93870000D01*
X146640000Y-93445000D01*
X146390000Y-92995000D01*
X145965000Y-92045000D01*
X145740000Y-91470000D01*
X145390000Y-90390000D01*
X145240000Y-89750000D01*
X145130000Y-89020000D01*
X145100000Y-85630000D01*
X145050000Y-85380000D01*
X145060000Y-85470000D01*
X144990000Y-85330000D01*
X144860000Y-85220000D01*
X144750000Y-85170000D01*
X144620000Y-85130000D01*
X139670000Y-85130000D01*
X139190000Y-84945000D01*
X138690000Y-84645000D01*
X138315000Y-84399408D01*
X137965000Y-84095000D01*
X137490000Y-83645000D01*
X136990000Y-83120000D01*
X136865000Y-82995000D01*
X136690000Y-82720000D01*
X136215000Y-81945000D01*
X135940000Y-81249623D01*
X135690000Y-80420000D01*
X135640000Y-79820000D01*
X135640000Y-76645000D01*
X135590000Y-76595000D01*
X129291141Y-71320000D01*
X128890000Y-70596312D01*
X128565000Y-69795000D01*
X128565000Y-69195000D01*
X128690000Y-68270000D01*
X128890000Y-67620000D01*
X129140000Y-67020000D01*
X129415000Y-66570000D01*
X129815000Y-66120000D01*
X130465000Y-65645000D01*
X131065000Y-65445000D01*
X131815000Y-65395000D01*
X137240000Y-65345000D01*
X138291141Y-65745000D01*
G36*
X138291141Y-65745000D02*
G01*
X143890000Y-66520000D01*
X150115000Y-67370000D01*
X150790000Y-67420000D01*
X151915000Y-67420000D01*
X152390000Y-67445000D01*
X152860000Y-67650000D01*
X154040000Y-68445000D01*
X155000000Y-69220000D01*
X155560000Y-69770000D01*
X156100000Y-70290000D01*
X156340000Y-70600000D01*
X156430000Y-70810000D01*
X156540000Y-71030000D01*
X156530000Y-71710000D01*
X156515000Y-73845000D01*
X156665000Y-74020000D01*
X156842498Y-74070000D01*
X158590000Y-74070000D01*
X162530000Y-76020000D01*
X162490000Y-89870000D01*
X162390000Y-90020000D01*
X162240000Y-90120000D01*
X162040000Y-90170000D01*
X160215000Y-90170000D01*
X160040000Y-90195000D01*
X159840000Y-90270000D01*
X159665000Y-90420000D01*
X159565000Y-90570000D01*
X159515000Y-90720000D01*
X159440000Y-90995000D01*
X159540000Y-91345000D01*
X159715000Y-91570000D01*
X159815000Y-91670000D01*
X160040000Y-91770000D01*
X160315000Y-91795000D01*
X172740000Y-91795000D01*
X173740000Y-90795000D01*
X177330000Y-90790000D01*
X177370000Y-90460000D01*
X177420000Y-90790000D01*
X178620000Y-90790000D01*
X178620000Y-96214271D01*
X177415000Y-96220000D01*
X177340000Y-96520000D01*
X177290000Y-96220000D01*
X173791141Y-96214271D01*
X172741141Y-95189271D01*
X160616141Y-95189271D01*
X160491141Y-95514271D01*
X160491141Y-97014271D01*
X160441141Y-97214271D01*
X160291141Y-97314271D01*
X155716141Y-97314271D01*
X155591141Y-97114271D01*
X155591141Y-94964271D01*
X155491141Y-94839271D01*
X155466141Y-94814271D01*
X155366141Y-94714271D01*
X155116141Y-94614271D01*
X148515000Y-94595000D01*
X148040000Y-94495000D01*
X147690000Y-94370000D01*
X147415000Y-94245000D01*
X146940000Y-93870000D01*
X146640000Y-93445000D01*
X146390000Y-92995000D01*
X145965000Y-92045000D01*
X145740000Y-91470000D01*
X145390000Y-90390000D01*
X145240000Y-89750000D01*
X145130000Y-89020000D01*
X145100000Y-85630000D01*
X145050000Y-85380000D01*
X145060000Y-85470000D01*
X144990000Y-85330000D01*
X144860000Y-85220000D01*
X144750000Y-85170000D01*
X144620000Y-85130000D01*
X139670000Y-85130000D01*
X139190000Y-84945000D01*
X138690000Y-84645000D01*
X138315000Y-84399408D01*
X137965000Y-84095000D01*
X137490000Y-83645000D01*
X136990000Y-83120000D01*
X136865000Y-82995000D01*
X136690000Y-82720000D01*
X136215000Y-81945000D01*
X135940000Y-81249623D01*
X135690000Y-80420000D01*
X135640000Y-79820000D01*
X135640000Y-76645000D01*
X135590000Y-76595000D01*
X129291141Y-71320000D01*
X128890000Y-70596312D01*
X128565000Y-69795000D01*
X128565000Y-69195000D01*
X128690000Y-68270000D01*
X128890000Y-67620000D01*
X129140000Y-67020000D01*
X129415000Y-66570000D01*
X129815000Y-66120000D01*
X130465000Y-65645000D01*
X131065000Y-65445000D01*
X131815000Y-65395000D01*
X137240000Y-65345000D01*
X138291141Y-65745000D01*
G37*
M02*
